<?xml version="1.0" encoding="utf-8"?>
<!-- Generator: Adobe Illustrator 23.0.1, SVG Export Plug-In . SVG Version: 6.00 Build 0)  -->
<svg version="1.1" id="レイヤー_1" xmlns="http://www.w3.org/2000/svg" xmlns:xlink="http://www.w3.org/1999/xlink" x="0px"
	 y="0px" viewBox="0 0 225 60" style="enable-background:new 0 0 225 60;" xml:space="preserve">
<style type="text/css">
	.st0{fill:#232320;}
</style>
<g>
	<g>
		<g>
			<path class="st0" d="M82.5,21.6c0.6,0,0.7-0.9,0.4-2.5c0.3,0,0.9,0,1.1-0.1c0.6,2.6-0.1,4.9-3.5,4.9c-3,0-3.8-1.4-3.9-4
				c-0.2-2.5-1-3-2.5-3h-0.3c0,1.3,0,2.4,0.1,2.8c0.1,0.9,0.5,1.3,1.2,1.3h0.6v2.4c0,0-3.1,0-4.2,0c-1.5,0-4.2,0-4.2,0
				c0-0.5,0-1.9,0-2.4H68c0.8,0,1.1-0.3,1.2-1.3c0.1-1,0.1-6.8,0-7.8c-0.1-0.8-0.3-1.2-1.1-1.2h-0.8c0-0.5,0-1.9,0-2.4
				c0.3,0,3.5,0,4.5,0c1,0,3,0,4.9,0c3.5,0,5.5,1.4,5.5,4.1c0,2-1.4,3.5-3.9,3.8c2,0.3,2.8,1.5,3,3.2C81.7,21.2,82,21.6,82.5,21.6z
				 M73.8,15.3h1c1.7,0,2.4-0.7,2.4-2.3c0-1.5-0.5-2.3-1.9-2.3h-0.5c-0.6,0-0.8,0.3-0.8,0.9C73.8,12.3,73.8,13.8,73.8,15.3z"/>
			<path class="st0" d="M84.9,21.6h0.6c0.7,0,0.9-0.3,0.9-0.9c0.1-0.8,0.1-5.5,0-6.3c-0.1-0.7-0.3-1-0.9-1h-0.6c0-0.4,0-1.5,0-1.9
				c0,0,2.1,0,3.3,0c1.2,0,3.2,0,3.3,0c0,0.4,0,1.5,0,1.9H91c-0.6,0-0.9,0.3-0.9,1c-0.1,0.8-0.1,5.5,0,6.3c0,0.6,0.2,0.9,0.9,0.9
				h0.5c0,0.4,0,1.6,0,2c0,0-2.1-0.1-3.3-0.1c-1.2,0-3.3,0.1-3.3,0.1C85,23.1,85,22,84.9,21.6z"/>
			<path class="st0" d="M95.5,14.2c0,0.8,0.6,1,2.7,1.1c3,0.2,5.2,1.2,5.2,4.1c0,2.8-1.8,4.3-5.1,4.3c-1.6,0-2.5-0.3-3.5-0.8
				c-0.6-0.3-0.9-0.1-1,0.6c-0.2,0-1.3,0-1.5,0c0.1-1.2,0.2-3,0.1-4.1c0.3,0,1.2,0,1.5,0c0.6,1.7,2.1,2.4,4.4,2.4
				c1.6,0,2.3-0.5,2.3-1.2c0-0.8-0.8-1.1-3.1-1.3c-3.4-0.2-4.9-1.6-4.9-4c0-2.4,1.6-4.3,4.8-4.3c1.5,0,2.5,0.4,3.1,0.7
				c0.8,0.4,0.9,0.1,1-0.5c0.2,0,1.2,0,1.4,0c-0.1,1-0.2,2.6-0.1,3.6c-0.3,0-1.2,0-1.5,0c-0.5-1.4-1.8-2-3.4-2
				C96.1,13,95.5,13.5,95.5,14.2z"/>
			<path class="st0" d="M104,21.6h0.6c0.7,0,0.9-0.3,0.9-0.9c0.1-0.8,0.1-5.5,0-6.3c-0.1-0.7-0.3-1-0.9-1H104c0-0.4,0-1.5,0-1.9
				c0,0,2.1,0,3.3,0c1.2,0,3.2,0,3.3,0c0,0.4,0,1.5,0,1.9h-0.6c-0.6,0-0.9,0.3-0.9,1c-0.1,0.8-0.1,5.5,0,6.3c0,0.6,0.2,0.9,0.9,0.9
				h0.5c0,0.4,0,1.6,0,2c0,0-2.1-0.1-3.3-0.1c-1.2,0-3.3,0.1-3.3,0.1C104,23.1,104,22,104,21.6z"/>
			<path class="st0" d="M121.4,18.4c0-1,0-3,0-3.8c-0.1-0.9-0.5-1.2-1.1-1.2h-0.8v-1.9c0.1,0,1.8,0.1,2.8,0.1c1,0,2.8-0.1,2.8-0.1
				c0,0.4,0,1.5,0,1.9h-0.6c-0.6,0-1,0.3-1.1,1.2c-0.1,1-0.1,6.3,0,8.9c-0.8,0-2.5,0-3.2,0c-1.1-1.8-3.5-5.5-5.1-7.9
				c0,1.6,0,4.1,0,4.8c0,0.7,0.3,1.1,1.1,1.1h0.8c0,0.4,0,1.6,0,1.9c0,0-1.8,0-2.8,0c-1,0-2.8,0-2.8,0c0-0.4,0-1.6,0-1.9h0.6
				c0.8,0,1.1-0.4,1.1-1.1c0.1-0.9,0.1-5.2,0-6c-0.1-0.7-0.4-1.1-1.1-1.1h-0.6c0-0.4,0-1.5,0-1.9c1.3,0,4.1,0,5.5,0
				C117.9,13.1,120.1,16.5,121.4,18.4z"/>
			<path class="st0" d="M134.4,11.9c0.7,0.4,0.9,0.3,1-0.5c0.3,0,1.3,0,1.6,0c-0.1,0.8-0.3,3.4-0.3,4.6c-0.6,0-2,0-2.6,0
				c-0.1-1.7-0.6-2.8-2.2-2.8c-1.6,0-2.3,0.9-2.3,4.2c0,3.6,1.1,4.3,2.3,4.3c1.2,0,2-0.6,2-2.1c0-0.8-0.2-1.2-0.9-1.2h-0.6
				c0-0.7,0-1.4,0-1.4s1.9,0.1,2.9,0.1c1,0,2.8-0.1,2.8-0.1s0,0.8,0,1.4h-0.4c-0.5,0-0.6,0.3-0.6,0.9c0,0.9,0,2.8,0.2,4.1
				c-0.6,0-1.5,0-2.1,0c-0.1-0.3-0.3-0.9-0.5-1.4c-0.6,1-2,1.7-3.7,1.7c-3.4,0-5.8-1.5-5.8-6.4c0-4.3,2.4-6.3,5.8-6.3
				C132.4,11.1,133.5,11.3,134.4,11.9z"/>
			<path class="st0" d="M147,11.8c0,1,0.8,1.2,3.4,1.4c3.7,0.3,6.5,1.5,6.5,5.2c0,3.5-2.3,5.4-6.4,5.4c-2,0-3.2-0.4-4.3-1
				c-0.8-0.4-1.2-0.1-1.3,0.8c-0.3,0-1.6,0-1.9,0c0.2-1.5,0.3-3.7,0.2-5.1c0.3,0,1.5,0,1.8,0c0.7,2.1,2.7,3,5.5,3
				c2,0,2.9-0.6,2.9-1.5c0-1-1-1.3-3.9-1.6c-4.3-0.3-6.1-2-6.1-5c0-3,2-5.4,6-5.4c1.9,0,3.1,0.5,3.9,0.9c1,0.5,1.1,0.2,1.2-0.6
				c0.3,0,1.5,0,1.8,0c-0.2,1.2-0.2,3.2-0.2,4.6c-0.3,0-1.5,0-1.8,0c-0.7-1.8-2.2-2.5-4.3-2.5C147.7,10.4,147,11.1,147,11.8z"/>
			<path class="st0" d="M159,14.5c0-0.8-0.3-1.1-1-1.1h-0.4c0-0.4,0-1.5,0-1.9c0,0,2.2,0,3.4,0c1.2,0,3.2,0,3.5,0v1.9H164
				c-0.6,0-1,0.3-1.1,1.1c0,1.3,0,3.4,0,4.3c0.1,2.1,0.7,2.8,2.2,2.8c1.4,0,2.1-0.7,2.2-2.8c0-1.3,0.1-3.1,0-4.3
				c0-0.8-0.4-1.1-1-1.1h-0.6c0-0.4,0-1.5,0-1.9c0,0,1.7,0,2.6,0c1,0,2.5,0,2.7,0v1.9h-0.4c-0.6,0-0.9,0.3-1,1.1c0,1.6,0,3,0,4.4
				c0,3.6-1.9,5-5.2,5c-3.8,0-5.5-1.5-5.5-4.9C159,18,159.1,15.9,159,14.5z"/>
			<path class="st0" d="M181.8,18.4c0-1,0-3,0-3.8c-0.1-0.9-0.5-1.2-1.1-1.2h-0.8v-1.9c0.1,0,1.8,0.1,2.8,0.1s2.8-0.1,2.8-0.1
				c0,0.4,0,1.5,0,1.9h-0.6c-0.6,0-1,0.3-1.1,1.2c-0.1,1-0.1,6.3,0,8.9c-0.8,0-2.5,0-3.2,0c-1.1-1.8-3.5-5.5-5.1-7.9
				c0,1.6,0,4.1,0,4.8c0,0.7,0.3,1.1,1.1,1.1h0.8c0,0.4,0,1.6,0,1.9c0,0-1.8,0-2.8,0c-1,0-2.8,0-2.8,0c0-0.4,0-1.6,0-1.9h0.6
				c0.8,0,1.1-0.4,1.1-1.1c0.1-0.9,0.1-5.2,0-6c-0.1-0.7-0.4-1.1-1.1-1.1h-0.6c0-0.4,0-1.5,0-1.9c1.3,0,4.1,0,5.5,0
				C178.3,13.1,180.5,16.5,181.8,18.4z"/>
		</g>
		<path class="st0" d="M82.5,37.7c0.6,0,0.7-0.9,0.4-2.5c0.3,0,0.9,0,1.1-0.1c0.6,2.6-0.1,4.9-3.5,4.9c-3,0-3.8-1.4-3.9-4
			c-0.2-2.5-1-3-2.5-3h-0.3c0,1.3,0,2.4,0.1,2.8c0.1,0.9,0.5,1.3,1.2,1.3h0.6v2.4c0,0-3.1,0-4.2,0c-1.5,0-4.2,0-4.2,0
			c0-0.5,0-1.9,0-2.4H68c0.8,0,1.1-0.3,1.2-1.3c0.1-1,0.1-6.8,0-7.8c-0.1-0.8-0.3-1.2-1.1-1.2h-0.8c0-0.5,0-1.9,0-2.4
			c0.3,0,3.5,0,4.5,0c1,0,3,0,4.9,0c3.5,0,5.5,1.4,5.5,4.1c0,2-1.4,3.5-3.9,3.8c2,0.3,2.8,1.5,3,3.2C81.7,37.3,82,37.7,82.5,37.7z
			 M73.8,31.4h1c1.7,0,2.4-0.7,2.4-2.3c0-1.5-0.5-2.3-1.9-2.3h-0.5c-0.6,0-0.8,0.3-0.8,0.9C73.8,28.4,73.8,29.9,73.8,31.4z"/>
		<path class="st0" d="M85,32.5c0-4.4,2.5-6.3,6.3-6.3c4.2,0,6.3,1.9,6.3,6.3c0,4.5-2.7,6.3-6.3,6.3C87.2,38.7,85,36.9,85,32.5z
			 M93.4,32.4c0-3.3-0.5-4.4-2.1-4.4c-1.6,0-2.1,1.2-2.1,4.4c0,3.2,0.4,4.3,2.1,4.3C93,36.8,93.4,35.6,93.4,32.4z"/>
		<path class="st0" d="M108.9,26.4c0.3,0,1.3,0,1.6,0c-0.1,0.8-0.3,3.4-0.3,4.6c-0.6,0-2,0-2.6,0c-0.1-1.7-0.6-2.8-2.2-2.8
			c-1.6,0-2.3,0.9-2.3,4.2c0,3.6,1,4.3,2.3,4.3c1.4,0,2.3-1,2.3-2.9c0.6,0,2.2,0,2.8,0c0,3.6-1.5,5-5.6,5c-3.8,0-6-1.6-6-6.3
			c0-4.3,2.4-6.3,5.8-6.3c1.6,0,2.5,0.4,3.2,0.8C108.6,27.3,108.8,27.2,108.9,26.4z"/>
		<path class="st0" d="M111.3,36.5h0.5c0.8,0,1-0.3,1-1c0.1-0.7,0.1-5.5,0-6.2c-0.1-0.7-0.3-1-1-1h-0.4c0-0.4,0-1.5,0-1.9
			c0,0,2.1,0,3.3,0c1.2,0,3.2,0,3.3,0c0,0.4,0,1.5,0,1.9h-0.5c-0.6,0-0.9,0.3-0.9,1c0,0.4,0,1.6,0,2.9l3.1-2.6
			c0.6-0.5,0.3-1.3-0.4-1.3h-0.5c0-0.4,0-1.5,0-1.9c0,0,2.1,0,3.3,0c1.2,0,3.1,0,3.2,0c0,0.4,0,1.5,0,1.9h-0.6c-1.3,0-2,0.4-3,1.2
			l-1.1,0.9c0.6,1,2.9,4.8,3.1,5.1c0.5,0.7,0.8,1,1.4,1h0.3c0,0.4,0,1.6,0,1.9c0,0-2.1,0-3.3,0c-1.2,0-3.3,0-3.3,0
			c0-0.4,0-1.5,0-1.9h0.3c0.7,0,0.7-0.6,0.2-1.5c-0.1-0.2-1-1.5-1.5-2.3l-1.1,0.9c0,0.9,0,1.7,0,2c0,0.6,0.2,1,0.8,1h0.5
			c0,0.4,0,1.6,0,1.9c0,0-2.1,0-3.2,0c-1.2,0-3.3,0-3.3,0C111.3,38.1,111.3,36.9,111.3,36.5z"/>
		<path class="st0" d="M135.2,31.8c1,0,1.4-0.4,1.4-1.5v-0.5c0.7,0,1.5,0,1.5,0c-0.1,1-0.1,1.4-0.1,2.6c0,1.3,0,1.8,0.1,2.7
			c0,0-0.7,0-1.4,0v-0.5c0-1.2-0.3-1.6-1.4-1.6h-0.3c0,0.8,0,2,0,2.4c0.1,0.9,0.3,1.1,1.1,1.1h0.8c0,0.4,0,1.6,0,1.9
			c0,0-2.3,0-3.6,0c-1.3,0-3.6,0-3.6,0c0-0.4,0-1.6,0-1.9h0.5c0.7,0,1-0.4,1-1.1c0.1-1,0.1-4.9,0-6c0-0.7-0.3-1.1-1-1.1h-0.6
			c0-0.4,0-1.5,0-1.9c0.3,0,2.3,0,3.5,0c1.1,0,1.6,0,4.1,0c0.7,0,3.3,0,4.1-0.1c-0.1,1.3-0.1,3.8-0.1,5.1c-0.6,0-1.4,0-1.9,0
			c0-2.5-0.5-3.1-2.1-3.1H136c-0.7,0-1,0.3-1.1,1c0,0.4,0,1.4,0,2.4H135.2z"/>
		<path class="st0" d="M149,29.8c0.7,0,1.5,0,1.5,0c-0.1,1-0.1,1.4-0.1,2.6c0,1.3,0,1.8,0.1,2.7c0,0-0.7,0-1.4,0v-0.5
			c0-1.2-0.3-1.6-1.4-1.6h-0.4c0,0.8,0,2,0,2.5c0.1,0.9,0.4,1.1,1.1,1.1h1.5c1.6,0,2.1-0.6,2.1-2.9c0.4,0,1.6,0,2.1,0
			c-0.1,1.3-0.2,3.4-0.2,4.9c-1.1-0.1-3-0.1-4-0.1h-4.4c-1.2,0-3.3,0-3.5,0c0-0.4,0-1.6,0-1.9h0.4c0.8,0,1-0.4,1.1-1.1
			c0.1-0.9,0.1-4.9,0-5.9c-0.1-0.9-0.4-1.2-1-1.2H142c0-0.4,0-1.5,0-1.9c0.3,0,2.5,0,3.5,0h4.3c0.7,0,3.3,0,4.2-0.1
			c-0.1,1.3-0.1,3.4-0.1,4.6c-0.4,0-1.6,0-1.9,0c0-2.3-0.8-2.6-2.1-2.6h-1.5c-0.7,0-1,0.3-1.1,1c0,0.5,0,1.4,0,2.4h0.4
			c1.1,0,1.4-0.4,1.4-1.5V29.8z"/>
		<path class="st0" d="M158,29.1c0,0.8,0.6,1,2.7,1.1c3,0.2,5.2,1.2,5.2,4.1c0,2.8-1.8,4.3-5.1,4.3c-1.6,0-2.5-0.3-3.5-0.8
			c-0.6-0.3-0.9-0.1-1,0.6c-0.2,0-1.3,0-1.5,0c0.1-1.2,0.2-3,0.1-4.1c0.3,0,1.2,0,1.5,0c0.6,1.7,2.1,2.4,4.4,2.4
			c1.6,0,2.3-0.5,2.3-1.2c0-0.8-0.8-1.1-3.1-1.3c-3.4-0.2-4.9-1.6-4.9-4c0-2.4,1.6-4.3,4.8-4.3c1.5,0,2.5,0.4,3.1,0.7
			c0.8,0.4,0.9,0.1,1-0.5c0.2,0,1.2,0,1.4,0c-0.1,1-0.2,2.6-0.1,3.6c-0.3,0-1.2,0-1.5,0c-0.5-1.4-1.8-2-3.4-2
			C158.6,28,158,28.5,158,29.1z"/>
		<path class="st0" d="M174.1,28.4c0,2,0,6.3,0,7c0,0.7,0.3,1.1,1.1,1.1h0.6v1.9c0,0-2.2,0-3.5,0c-1.3,0-3.5,0-3.5,0
			c0-0.4,0-1.6,0-1.9h0.6c0.8,0,1.1-0.4,1.2-1.1c0-0.7,0.1-5,0-7h-0.7c-1,0-1.3,0.6-1.4,1.6l-0.1,1.4c-0.4,0-1.6,0-2,0
			c0.1-1.2,0-3.9-0.1-5.1c0.8,0.1,1.4,0.1,3.4,0.1h5.3c1.9,0,2.8,0,3.4-0.1c-0.1,1.2-0.1,3.9-0.1,5.1c-0.4,0-1.6,0-2,0l-0.1-1.4
			c-0.1-1-0.4-1.6-1.4-1.6H174.1z"/>
		<path class="st0" d="M179.2,36.5h0.6c0.7,0,0.9-0.3,0.9-0.9c0.1-0.8,0.1-5.5,0-6.3c-0.1-0.7-0.3-1-0.9-1h-0.6c0-0.4,0-1.5,0-1.9
			c0,0,2.1,0,3.3,0c1.2,0,3.2,0,3.3,0c0,0.4,0,1.5,0,1.9h-0.6c-0.6,0-0.9,0.3-0.9,1c-0.1,0.8-0.1,5.5,0,6.3c0,0.6,0.2,0.9,0.9,0.9
			h0.5c0,0.4,0,1.6,0,2c0,0-2.1-0.1-3.3-0.1c-1.2,0-3.3,0.1-3.3,0.1C179.2,38.1,179.2,36.9,179.2,36.5z"/>
		<path class="st0" d="M194.2,35.1c0.5-1.3,1.4-4,1.6-5.2c0.2-1,0.2-1.6-0.7-1.6h-0.4v-1.9c0,0,1.8,0,2.8,0c1,0,2.4,0,2.7,0
			c0,0.4,0,1.5,0,1.9h-0.4c-0.9,0-1.4,0.2-1.8,1.4c-0.6,1.6-2.2,6.3-2.9,8.8c-0.8,0-3.1,0-3.9,0c-0.6-2.3-2.2-7.4-2.7-8.9
			c-0.3-1-0.7-1.3-1.6-1.3h-0.4v-1.9c0,0,2.3,0,3.6,0c1.3,0,3.4,0,3.6,0v1.9h-0.4c-0.7,0-0.9,0.4-0.7,1.6
			C192.9,31.1,193.7,33.8,194.2,35.1z"/>
		<path class="st0" d="M206.3,34.8c-1.1,0-2.7,0-3.9,0c-0.4,1.2-0.2,1.7,0.7,1.7h0.6c0,0.4,0,1.6,0,1.9c0,0-1.8,0-2.8,0
			c-1,0-2.8,0-2.8,0c0-0.4,0-1.6,0-1.9h0.4c1,0,1.4-0.4,1.9-1.6c0.1-0.3,3-8,3.3-8.6c0,0,1.2,0,1.9,0c0.7,0,1.9,0,1.9,0
			c0.7,2,2.6,7,3.3,8.7c0.5,1.3,1,1.5,1.6,1.5h0.4c0,0.4,0,1.6,0,1.9c0,0-2.5,0-3.8,0c-1.4,0-3.8,0-3.8,0c0-0.4,0-1.6,0-1.9h0.7
			C206.4,36.5,206.7,36.1,206.3,34.8z M204.3,29.4c-0.5,1.3-1.1,3.1-1.5,4.3c1,0,2.2,0,3.1,0C205.5,32.5,204.8,30.7,204.3,29.4z"/>
		<path class="st0" d="M220.1,28.3h-0.5c-0.7,0-1.1,0.3-1.1,1.1c-0.1,0.9-0.1,5.1,0,6.1c0.1,0.8,0.4,1,1.1,1h0.7
			c1.4,0,2-0.4,2.1-3.4c0.3,0,1.4,0,1.8,0c-0.1,1.3-0.1,4.1-0.1,5.3c-1.2-0.1-2.9-0.1-3.7-0.1h-4c-0.7,0-2.2,0-3.1,0
			c0-0.4,0-1.5,0-1.9h0.6c0.8,0,0.9-0.4,0.9-1.1c0.1-1,0.1-5.2,0-6c-0.1-0.7-0.3-1.1-0.9-1.1h-0.6c0-0.4,0-1.5,0-1.9
			c0,0,2.2,0,3.4,0c1.2,0,3.3,0,3.4,0C220.1,26.8,220.1,27.9,220.1,28.3z"/>
		<path class="st0" d="M78,50.5c0,2.2-1.2,3.5-3.2,3.5c-1.6,0-2.6-0.7-3.8-1.7c-0.6-0.5-1.1-0.7-1.6-0.7c-0.3,0-0.6,0.1-0.8,0.3
			c0.1,0,0.2,0,0.3,0c0.7,0,1,0.4,1,1c0,0.6-0.4,1-1.1,1c-0.8,0-1.3-0.7-1.3-1.8c0-1.8,0.9-3.3,3.1-4.2c2.1-0.8,2.9-1.7,2.9-3.2
			c0-1.3-0.7-2.1-2.2-2.1c-0.8,0-1.6,0.3-2.1,0.8c0.2,0,0.5-0.1,0.7-0.1c1.1,0,1.8,0.7,1.8,1.7c0,1-0.7,1.7-1.9,1.7
			c-1.2,0-2-0.8-2-2.2c0-2.4,2-3.8,5.1-3.8c3.2,0,4.9,1.4,4.9,3.5c0,2.5-1.9,4-5.3,4.4c-1.6,0.2-2.8,0.8-3.4,1.6
			c0.8-0.7,2.3-0.7,3.9-0.5c1.8,0.3,3.8,0.6,3.5-1.2l1.2-0.2C77.8,49,78,49.7,78,50.5z"/>
		<path class="st0" d="M85.2,40.7c4,0,6.1,2.2,6.1,6.6c0,4.6-2.4,6.5-6.1,6.5c-3.9,0-6.1-1.9-6.1-6.5C79.1,42.9,81.5,40.7,85.2,40.7
			z M85.2,52.2c1.2,0,1.7-0.9,1.7-4.9c0-4-0.4-5.1-1.7-5.1c-1.2,0-1.7,1-1.7,5.1C83.5,51.4,84,52.2,85.2,52.2z"/>
		<path class="st0" d="M94.9,45.1c-0.6,0.3-1.4,0.4-2,0.2c0-0.4,0-1.8,0-2.2h0.2c2.1,0.1,3.1-0.7,3.2-2.6c0.6,0,2.4,0,3,0
			c0,0-0.1,1.9-0.1,2.8c0,1.5,0,5.4,0,6.9c0,0.8,0.3,1.2,1.1,1.2h0.9c0,0.4,0,1.6,0,2c0,0-2.7,0-4.2,0c-1.5,0-4.3,0-4.3,0
			c0-0.4,0-1.6,0-2h1c1,0,1.1-0.5,1.1-1.2C94.9,49.8,94.9,47,94.9,45.1z"/>
		<path class="st0" d="M109.6,49.1c-0.5,1-1.6,1.7-2.9,1.7c-2.7,0-4.4-1.7-4.4-4.7c0-3.2,2.2-5.4,5.8-5.4c3.8,0,5.9,2.4,5.9,7.7
			c0,4.4-1.5,8.2-6.8,8.2c-3,0-4.7-1.3-4.7-3.1c0-1.3,0.8-2,2.2-2c1.2,0,1.9,0.6,1.9,1.7c0,1.2-0.8,1.7-2.1,1.7
			c0.5,0.3,1.2,0.4,2,0.4C108.6,55.4,109.5,53.9,109.6,49.1z M107.9,42.1c-1.1,0-1.5,1-1.5,3.4c0,2.6,0.5,3.5,1.5,3.5
			c1.1,0,1.6-0.8,1.6-3.5C109.6,43.1,109.2,42.1,107.9,42.1z"/>
		<path class="st0" d="M121,51c0,0.7,0.2,0.9,0.8,0.9h0.2c0,0.4,0,1.3,0,1.6c-0.1,0-1.7,0-2.6,0c-1,0-2.6,0-2.6,0c0-0.3,0-1.2,0-1.6
			h0.2c0.6,0,0.8-0.2,0.8-0.9c0-0.7,0.1-2.8,0-3.4c0-0.6-0.2-0.8-0.8-0.8h-0.2c0-0.4,0-1.2,0-1.6c1.1,0,3.3,0,4.3,0
			C121,46,120.9,50.3,121,51z M119.3,44.4c-1.1,0-1.8-0.7-1.8-1.8c0-1.1,0.7-1.8,1.8-1.8c1.1,0,1.8,0.7,1.8,1.8
			C121.1,43.7,120.4,44.4,119.3,44.4z"/>
		<path class="st0" d="M132.8,50.9c0.1,0.7,0.2,0.9,0.8,0.9h0.1c0,0.4,0,1.3,0,1.6c-0.1,0-1.6,0-2.5,0c-0.9,0-2.5,0-2.5,0
			c0-0.8,0-1.6,0-1.6h0.2c0.5,0,0.6-0.3,0.7-0.9c0-0.7,0-2,0-2.8c0-0.9-0.2-1.4-1-1.4c-0.8,0-1.1,0.7-1.1,2v2.2
			c0,0.7,0.2,0.9,0.7,0.9h0.2c0,0.4,0,1.3,0,1.6c-0.1,0-1.6,0-2.6,0c-0.9,0-2.5,0-2.6,0c0-0.3,0-1.3,0-1.6h0.2
			c0.6,0,0.8-0.2,0.8-0.9c0.1-0.7,0.1-2.7,0-3.3c-0.1-0.6-0.2-0.9-0.8-0.9h-0.1c0-0.7,0-1.6,0-1.6c0.8,0,3.5,0,4.2-0.1v1.7
			c0.4-1.3,1.3-1.9,2.7-1.9c2,0,2.7,1.2,2.7,3.2C132.8,48.5,132.8,50.6,132.8,50.9z"/>
		<path class="st0" d="M142.7,44.7c0.7,0,1.5,0,1.5,0c-0.1,1-0.1,1.4-0.1,2.6c0,1.3,0,1.8,0.1,2.7c0,0-0.7,0-1.4,0v-0.5
			c0-1.2-0.3-1.6-1.4-1.6H141c0,0.8,0,2,0,2.5c0.1,0.9,0.4,1.1,1.1,1.1h1.5c1.6,0,2.1-0.6,2.1-2.9c0.4,0,1.6,0,2.1,0
			c-0.1,1.3-0.2,3.4-0.2,4.9c-1.1-0.1-3-0.1-4-0.1h-4.4c-1.2,0-3.3,0-3.5,0c0-0.4,0-1.6,0-1.9h0.4c0.8,0,1-0.4,1.1-1.1
			c0.1-0.9,0.1-4.9,0-5.9c-0.1-0.9-0.4-1.2-1-1.2h-0.5c0-0.4,0-1.5,0-1.9c0.3,0,2.5,0,3.5,0h4.3c0.7,0,3.3,0,4.2-0.1
			c-0.1,1.3-0.1,3.4-0.1,4.6c-0.4,0-1.5,0-1.9,0c0-2.3-0.8-2.6-2.1-2.6h-1.5c-0.7,0-1,0.3-1.1,1c0,0.5,0,1.4,0,2.4h0.4
			c1.1,0,1.4-0.4,1.4-1.5V44.7z"/>
		<path class="st0" d="M148.9,51.7c1.5-2,4.5-5.9,6.3-8.4h-1.4c-2.3,0-2.9,0.5-2.9,3.2c-0.3,0-1.4,0-1.7,0c0.1-1.2,0.1-3.9,0-5.1
			c1,0,2.6,0.1,3.8,0.1h6.9c0,0.3,0,1.4,0,1.8c-1.5,2-4.4,5.8-6.2,8.3h1.7c1.9,0,2.9-0.7,2.9-3.4c0.3,0,1.4,0,1.7,0
			c0,1.3-0.1,4.1,0,5.3c-1.8,0-3.1-0.1-3.5-0.1h-7.6C148.9,53.1,148.9,52,148.9,51.7z"/>
		<path class="st0" d="M160.9,47.4c0-4.4,2.5-6.3,6.3-6.3c4.2,0,6.3,1.9,6.3,6.3c0,4.5-2.7,6.3-6.3,6.3
			C163.1,53.7,160.9,51.9,160.9,47.4z M169.3,47.4c0-3.3-0.5-4.4-2.1-4.4c-1.6,0-2.1,1.2-2.1,4.4c0,3.2,0.4,4.3,2.1,4.3
			C168.8,51.8,169.3,50.6,169.3,47.4z"/>
	</g>
	<g>
		<g>
			<path class="st0" d="M42.5,18.8c-3.3-3.3-7.7-5-12.1-5c-4.4,0-8.7,1.7-12.1,5c-3.2,3.2-5,7.5-5,12.1c0,4.6,1.8,8.8,5,12.1
				c6.7,6.7,17.5,6.7,24.1,0C49.1,36.2,49.1,25.4,42.5,18.8z M30.4,45.1c-3.8,0-7.4-1.5-10.1-4.2l0,0c-2.7-2.7-4.2-6.3-4.2-10.1
				c0-3.8,1.5-7.4,4.2-10.1c5.6-5.6,14.6-5.6,20.2,0c5.6,5.6,5.6,14.6,0,20.2C37.8,43.6,34.2,45.1,30.4,45.1z"/>
			<path class="st0" d="M40.5,32.1c1.2,1.2,1.8,2.7,1.8,4.4c1.7-3.5,1.7-7.7,0-11.3c0,1.7-0.7,3.2-1.8,4.4c-0.5,0.5-1.1,0.9-1.7,1.2
				C39.4,31.1,40,31.5,40.5,32.1z"/>
			<path class="st0" d="M24.7,41.6c2.8,0,5.1-2.3,5.1-5.1V25.2c0-1.7,0.7-3.2,1.8-4.4c1.2-1.2,2.7-1.8,4.4-1.8c-5-2.4-11-1.4-15,2.6
				c-0.5,0.5-1,1.1-1.4,1.6v2c0,1.4,0.5,2.6,1.5,3.6c1,1,2.2,1.5,3.6,1.5H26l0-2.6h-1.3c-0.7,0-1.3-0.3-1.7-0.7
				c-0.5-0.5-0.7-1.1-0.7-1.7l0-1.1l0.1-0.1c0.2-0.2,0.4-0.4,0.6-0.6c1.4-1.4,3.2-2.4,5.2-2.9l0.5-0.1l-0.2,0.4
				c-0.8,1.3-1.1,2.8-1.1,4.4l0,11.3c0,1.4-1.1,2.5-2.5,2.5c0,0,0,0,0,0c-0.7,0-1.3-0.3-1.7-0.7c-0.5-0.5-0.7-1.1-0.7-1.7
				c0-1.4,1.1-2.5,2.5-2.5l1.3,0v-2.6l-1.3,0c-2.8,0-5.1,2.3-5.1,5.1C19.7,39.3,21.9,41.6,24.7,41.6z"/>
			<path class="st0" d="M22.1,30.8c-0.6-0.3-1.2-0.7-1.8-1.2c-1.2-1.2-1.8-2.7-1.8-4.4c-0.8,1.7-1.3,3.7-1.3,5.6
				c0,2,0.4,3.9,1.3,5.6l0-0.1C18.5,34,19.9,31.8,22.1,30.8z"/>
			<path class="st0" d="M39.7,40.2c0.5-0.5,1-1.1,1.4-1.7v-2c0-1.4-0.5-2.6-1.5-3.6c-1-1-2.2-1.5-3.6-1.5l-1.3,0l0,2.6h1.3
				c0.7,0,1.3,0.3,1.7,0.7c0.5,0.5,0.7,1.1,0.7,1.7v1.1l-0.1,0.1c-0.2,0.2-0.4,0.4-0.6,0.6c-1.4,1.4-3.2,2.4-5.2,2.9l-0.5,0.1
				l0.2-0.4c0.8-1.3,1.2-2.8,1.2-4.4l0-11.3c0-0.7,0.3-1.3,0.7-1.7c0.5-0.5,1.1-0.7,1.7-0.7c0.7,0,1.3,0.3,1.7,0.7
				c0.5,0.5,0.7,1.1,0.7,1.7l0,0.2c0,0.6-0.3,1.1-0.7,1.5c-0.5,0.5-1.1,0.7-1.7,0.7c0,0,0,0,0,0l-1.3,0v2.6h1.3
				c1.4,0,2.6-0.5,3.6-1.5c1-1,1.5-2.2,1.5-3.6s-0.5-2.6-1.5-3.6c-1-1-2.2-1.5-3.6-1.5h-0.1c-1.3,0-2.5,0.6-3.5,1.5
				c-1,1-1.5,2.2-1.5,3.6l0,11.3c0,3.4-2.8,6.2-6.2,6.3C29.8,45.1,35.8,44.1,39.7,40.2z"/>
			<path class="st0" d="M31,7l15.4,12.9L46,17.8L33.2,7h-0.1V7c-1.4-1.2-1.9-1.5-2.7-1.5c-0.8,0-1.3,0.3-2.8,1.6l-0.5,0.4h2.2
				l1.1-0.9L31,7z"/>
			<path class="st0" d="M52.6,20.1l-0.3-0.3l0.4,2.1l1.4,1.2c1.6,1.3,3.7,1.9,6.5,1.7C59,24.4,56.8,23.3,52.6,20.1z"/>
			<path class="st0" d="M10.1,7.7c0.4,1.6,0.6,4.1-0.1,9.3L10,17.4l1.7-1.4l0.3-1.8C12.3,12.1,11.7,10,10.1,7.7z"/>
			<path class="st0" d="M46.7,11.4c-0.6-0.5-1.2-0.6-3.1-0.6H43l1.7,1.4H46l0.1,0.8l3.5,19.8l1.1-1.9l-2.9-16.6
				C47.5,12.5,47.3,11.9,46.7,11.4z"/>
			<path class="st0" d="M50.7,17c-0.7-5.3-0.5-7.8-0.1-9.4c-1.5,2-2.3,4-1.8,6.6l2.7,15.4l1.1-1.9l-0.2-1.3L50.7,17z"/>
			<path class="st0" d="M35.7,12.2L34,10.8l-16.8,0c-1.9,0-2.5,0.1-3.1,0.6c-0.6,0.5-0.8,1.1-1.1,3l0,0.1L12.9,15l1.7-1.4l0.2-1.4
				H35.7z"/>
			<path class="st0" d="M57.3,45.7c-0.9-1.3-1.9-3.6-3.1-8.8l-0.1-0.4l-1.1,1.9l0.3,1.8C53.8,42.2,55,44,57.3,45.7z"/>
			<path class="st0" d="M49.6,45.1c1.8-0.7,2.3-0.9,2.7-1.6c0.4-0.7,0.4-1.3,0-3.2l-0.1-0.6l-1.1,1.9l0.2,1.4l-0.8,0.3l-18.9,6.9
				l2,0.7L49.6,45.1z"/>
			<path class="st0" d="M23.4,53.2l-1.3,0.5l-0.6-1.1l-7-12.1l0,0l-2.9-5l-0.4,2.1l8.4,14.5h0l0,0.1c1,1.7,1.3,2.1,2.1,2.4
				c0.8,0.3,1.3,0.2,3.1-0.5l0,0l0.6-0.2L23.4,53.2z"/>
			<path class="st0" d="M5.4,26.4l0,0.1c-0.1,0.8,0.1,1.3,1.1,2.9L6.8,30l0.4-2.1l-0.7-1.2l0.1-0.1l15.9-13.4h-2.2L7.4,24l-0.1-0.1
				l0,0L7.4,24C5.9,25.2,5.6,25.6,5.4,26.4z"/>
			<path class="st0" d="M41.1,52.3l0.3-0.5l-2,0.7l-0.7,1.2l-0.8-0.3l-18.9-6.9l1.1,1.9L36,54.2c1.8,0.6,2.3,0.8,3.1,0.5
				C39.8,54.4,40.2,53.9,41.1,52.3z"/>
			<path class="st0" d="M25.2,55.1c-2,0.7-3.5,2.3-4.7,4.8c1.2-1.1,3.2-2.5,8.1-4.6l0.4-0.1l-2-0.7L25.2,55.1z"/>
			<path class="st0" d="M4.1,46.7c0.2,0,0.4,0,0.6,0c1.6,0,4.1,0.4,8.5,1.7l0.4,0.1l-1.1-1.9l-1.8-0.7C8.8,45.4,6.7,45.6,4.1,46.7z"
				/>
			<path class="st0" d="M16,50.8c2.5,4.8,3.1,7.2,3.3,8.8c0.7-2.4,0.8-4.5-0.5-6.8L11,39.3l-0.4,2.1L16,50.8z"/>
			<path class="st0" d="M5.6,29.9c-1-1.8-2.8-3-5.6-3.8c1.3,0.9,3,2.7,5.9,7.2l0.2,0.3l0.4-2.1L5.6,29.9z"/>
			<path class="st0" d="M20.9,49.8l1.1,1.9l10.2,3.7c5,2.1,7,3.5,8.2,4.6c-1-2.3-2.3-4-4.8-4.9L20.9,49.8z"/>
			<path class="st0" d="M6.5,36.9c-1.2,5.3-2.2,7.5-3.1,8.9c2.1-1.4,3.5-3,4-5.6l2.7-15.3l-1.7,1.4L8.3,27L6.5,36.9z"/>
			<path class="st0" d="M60.9,26.1c-2.4,0.6-4.3,1.6-5.6,3.9l-7.8,13.5l2-0.7l5.4-9.4C57.8,28.8,59.5,27,60.9,26.1z"/>
			<path class="st0" d="M41.5,59.5c0.2-1.6,0.8-4,3.3-8.7l0.2-0.4l-2,0.7L42,52.8C41,54.6,40.8,56.7,41.5,59.5z"/>
			<path class="st0" d="M56.8,46.8c-2.2-1.1-4.3-1.5-6.7-0.7v0H50l-14.6,5.3l2,0.7l10.2-3.7C52.7,46.9,55.2,46.6,56.8,46.8z"/>
			<path class="st0" d="M9.3,43l0.2-1.2L13,22.4l-1.7,1.4L8.4,40.3c-0.3,1.9-0.4,2.5,0,3.2c0.4,0.7,0.9,1,2.7,1.6l0,0l0.6,0.2
				l-1.1-1.9L9.3,43z"/>
			<path class="st0" d="M40.1,8.4l1.7,1.4l1.8,0c2.1,0,4-0.9,6.1-2.9c-1.5,0.6-3.9,1.3-9.2,1.5L40.1,8.4z"/>
			<path class="st0" d="M0.1,24.9c2.5,0.2,4.6,0,6.6-1.7l11.9-10h-2.2l-8.3,6.9C4,23.4,1.7,24.5,0.1,24.9z"/>
			<path class="st0" d="M55.4,26.4c-0.1-0.8-0.5-1.2-2-2.5l-0.5-0.4l0.4,2.1l1.1,0.9l-0.6,1.1l-9.8,17l2-0.7l8.4-14.6
				C55.3,27.7,55.5,27.2,55.4,26.4z"/>
			<path class="st0" d="M33.8,6.2l11.9,10l-0.4-2.1l-8.3-7c-4-3.6-5.4-5.7-6.1-7.1C31.2,2.5,31.8,4.5,33.8,6.2z"/>
			<path class="st0" d="M11,6.8c1.8,1.8,3.5,2.9,6.2,2.9c0,0,0,0,0,0l15.6,0l-1.7-1.4H20.3C14.9,8.1,12.5,7.5,11,6.8z"/>
			<path class="st0" d="M29.8,0.1c-0.7,1.4-2.2,3.5-6.1,7.1l-0.3,0.3h2.2L27,6.2C28.6,4.9,29.5,2.9,29.8,0.1z"/>
		</g>
	</g>
</g>
</svg>
