<?xml version="1.0" encoding="utf-8"?>
<!-- Generator: Adobe Illustrator 22.1.0, SVG Export Plug-In . SVG Version: 6.00 Build 0)  -->
<svg version="1.1" id="レイヤー_1" xmlns="http://www.w3.org/2000/svg" xmlns:xlink="http://www.w3.org/1999/xlink" x="0px"
	 y="0px" viewBox="0 0 80 80" enable-background="new 0 0 80 80" xml:space="preserve">
<g>
	<g>
		<g>
			<path fill="#FFFFFF" d="M78.046,41.55h-1.5c-1.256,0-2.279-1.022-2.279-2.279s1.022-2.279,2.278-2.279h1.5
				c0.641,0,1.161-0.519,1.161-1.161v-6.964c0-0.641-0.519-1.161-1.161-1.161h-1.5c-1.256,0-2.279-1.022-2.279-2.279v-0.422
				l1.703-1.56c0.462-0.423,0.505-1.136,0.098-1.611l-4.531-5.288c-0.2-0.234-0.485-0.378-0.792-0.402
				c-0.308-0.026-0.611,0.076-0.844,0.276l-1.139,0.976c-0.954,0.817-2.396,0.706-3.213-0.248c-0.396-0.462-0.588-1.051-0.542-1.658
				c0.047-0.607,0.327-1.159,0.789-1.555l1.139-0.976c0.487-0.417,0.543-1.15,0.126-1.637L62.53,6.037
				c-0.417-0.487-1.15-0.543-1.637-0.126l-1.139,0.976c-0.462,0.396-1.051,0.589-1.658,0.542c-0.607-0.047-1.159-0.327-1.555-0.789
				l-1.52-1.774c-0.2-0.234-0.485-0.378-0.792-0.402c-0.308-0.024-0.611,0.075-0.844,0.276L33.318,21.933h-3.313
				c-0.641,0-1.161,0.519-1.161,1.161s0.519,1.161,1.161,1.161h41.941v1.175c0,2.536,2.064,4.6,4.6,4.6h0.339v4.642h-0.339
				c-2.536,0-4.6,2.064-4.6,4.6c0,2.536,2.064,4.6,4.6,4.6h0.339v4.642h-0.339c-2.536,0-4.6,2.063-4.6,4.6v2.631H63.92
				c-0.641,0-1.161,0.519-1.161,1.161c0,0.641,0.519,1.161,1.161,1.161h9.186c0.641,0,1.161-0.519,1.161-1.161v-3.792
				c0-1.256,1.022-2.278,2.279-2.278h1.5c0.641,0,1.161-0.519,1.161-1.161v-6.964C79.207,42.07,78.687,41.55,78.046,41.55z
				 M36.886,21.933L54.014,7.258l0.764,0.892c0.799,0.933,1.914,1.499,3.139,1.593c1.225,0.094,2.413-0.294,3.347-1.093l0.258-0.221
				l3.021,3.525l-0.258,0.221c-1.926,1.65-2.151,4.56-0.5,6.486c1.651,1.926,4.56,2.15,6.486,0.5l0.258-0.221l2.564,2.993
				L36.886,21.933L36.886,21.933z"/>
		</g>
	</g>
	<g>
		<g>
			<path fill="#FFFFFF" d="M53.732,55.745H8.054v-1.175c0-2.536-2.064-4.6-4.6-4.6H3.115v-4.642h0.339c2.536,0,4.6-2.064,4.6-4.6
				c0-2.536-2.064-4.6-4.6-4.6H3.115v-4.642h0.339c2.536,0,4.6-2.064,4.6-4.6v-2.631h13.246c0.641,0,1.161-0.519,1.161-1.161
				c0-0.641-0.519-1.161-1.161-1.161H6.893c-0.641,0-1.161,0.519-1.161,1.161v3.792c0,1.256-1.022,2.279-2.279,2.279h-1.5
				c-0.641,0-1.161,0.519-1.161,1.161v6.964c0,0.641,0.519,1.161,1.161,1.161h1.5c1.256,0,2.279,1.022,2.279,2.279
				c0,1.256-1.022,2.279-2.279,2.279h-1.5c-0.641,0-1.161,0.519-1.161,1.161v6.964c0,0.641,0.519,1.161,1.161,1.161h1.5
				c1.256,0,2.279,1.022,2.279,2.279v0.628l-1.64,1.301c-0.247,0.196-0.404,0.484-0.434,0.798c-0.03,0.314,0.069,0.627,0.274,0.867
				l4.531,5.288c0.2,0.234,0.485,0.378,0.792,0.402c0.307,0.026,0.611-0.076,0.844-0.276l1.139-0.976
				c0.462-0.396,1.051-0.59,1.658-0.542c0.607,0.047,1.159,0.327,1.555,0.789c0.818,0.954,0.706,2.395-0.248,3.213l-1.139,0.976
				c-0.487,0.417-0.543,1.15-0.126,1.637l4.531,5.288c0.417,0.487,1.15,0.544,1.637,0.126l1.139-0.976
				c0.462-0.396,1.053-0.589,1.658-0.542c0.607,0.047,1.159,0.327,1.555,0.789l1.52,1.773c0.23,0.268,0.555,0.406,0.882,0.406
				c0.267,0,0.536-0.092,0.755-0.279l20.031-17.163c0.011-0.01,0.021-0.02,0.032-0.03h7.054c0.641,0,1.161-0.519,1.161-1.161
				S54.374,55.745,53.732,55.745z M25.986,72.742l-0.764-0.892c-0.799-0.933-1.914-1.499-3.139-1.593
				c-1.225-0.095-2.413,0.294-3.347,1.093l-0.258,0.221l-3.021-3.525l0.258-0.221c0.933-0.799,1.499-1.914,1.593-3.14
				c0.094-1.225-0.294-2.414-1.093-3.347c-0.799-0.933-1.914-1.499-3.139-1.593c-1.225-0.093-2.414,0.294-3.347,1.093l-0.258,0.221
				l-2.564-2.993h36.207L25.986,72.742z"/>
		</g>
	</g>
	<g>
		<g>
			<path fill="#FFFFFF" d="M66.326,27.375H33.262c-0.641,0-1.161,0.519-1.161,1.161s0.519,1.161,1.161,1.161h31.903v20.608H14.834
				V29.696h9.557c0.641,0,1.161-0.519,1.161-1.161s-0.519-1.161-1.161-1.161H13.674c-0.641,0-1.161,0.52-1.161,1.161v22.929
				c0,0.641,0.519,1.161,1.161,1.161h52.653c0.641,0,1.161-0.519,1.161-1.161V28.535C67.487,27.894,66.968,27.375,66.326,27.375z"/>
		</g>
	</g>
	<g>
		<g>
			<path fill="#FFFFFF" d="M24.788,34.919h-6.41c-0.424,0-0.621,0.455-0.621,0.879c0,0.485,0.227,0.894,0.621,0.894h2.228v8.683
				c0,0.409,0.485,0.621,0.985,0.621c0.485,0,0.985-0.212,0.985-0.621v-8.683h2.212c0.394,0,0.621-0.424,0.621-0.894
				C25.409,35.374,25.212,34.919,24.788,34.919z"/>
		</g>
	</g>
	<g>
		<g>
			<path fill="#FFFFFF" d="M27.47,34.919c-0.5,0-0.985,0.182-0.985,0.606v9.85c0,0.409,0.485,0.621,0.985,0.621
				c0.485,0,0.985-0.212,0.985-0.621v-9.85C28.455,35.101,27.955,34.919,27.47,34.919z"/>
		</g>
	</g>
	<g>
		<g>
			<path fill="#FFFFFF" d="M36.275,42.117c-0.515,0-0.94,0.152-0.97,0.621c-0.045,0.636-0.167,1.621-1.546,1.621
				c-1.046,0-1.621-0.561-1.621-1.743V38.39c0-1.182,0.576-1.743,1.591-1.743c1.439,0,1.546,1.031,1.576,1.5
				c0.015,0.455,0.424,0.621,0.985,0.621c0.667,0,0.985-0.182,0.985-0.97c0-1.758-1.5-2.879-3.607-2.879
				c-1.909,0-3.5,0.939-3.5,3.47v4.228c0,2.531,1.576,3.47,3.485,3.47c2.121,0,3.622-1.167,3.622-3.001
				C37.275,42.314,36.956,42.117,36.275,42.117z"/>
		</g>
	</g>
	<g>
		<g>
			<path fill="#FFFFFF" d="M46.003,44.739l-3.304-5.031l2.712-3.395c0.106-0.136,0.121-0.273,0.121-0.379
				c0-0.5-0.636-1.015-1.137-1.015c-0.212,0-0.394,0.076-0.545,0.288l-3.273,4.455v-4.137c0-0.424-0.5-0.606-0.985-0.606
				c-0.5,0-0.985,0.182-0.985,0.606h0v9.85c0,0.409,0.485,0.621,0.985,0.621c0.485,0,0.985-0.212,0.985-0.621v-2.97l0.818-1.03
				l2.849,4.319c0.167,0.273,0.424,0.379,0.682,0.379c0.576,0,1.182-0.5,1.182-0.985C46.109,44.967,46.078,44.845,46.003,44.739z"/>
		</g>
	</g>
	<g>
		<g>
			<path fill="#FFFFFF" d="M53.231,44.269h-4.289v-3.046h2.304c0.424,0,0.621-0.409,0.621-0.758c0-0.409-0.227-0.788-0.621-0.788
				h-2.304v-3.031h4.289c0.394,0,0.621-0.409,0.621-0.879c0-0.409-0.197-0.849-0.621-0.849h-5.395c-0.44,0-0.864,0.212-0.864,0.621
				v9.835c0,0.409,0.424,0.621,0.864,0.621h5.395c0.424,0,0.621-0.439,0.621-0.849C53.852,44.679,53.625,44.269,53.231,44.269z"/>
		</g>
	</g>
	<g>
		<g>
			<path fill="#FFFFFF" d="M61.307,34.919h-6.41c-0.424,0-0.621,0.455-0.621,0.879c0,0.485,0.227,0.894,0.621,0.894h2.228v8.683
				c0,0.409,0.485,0.621,0.985,0.621c0.485,0,0.985-0.212,0.985-0.621v-8.683h2.212c0.394,0,0.621-0.424,0.621-0.894
				C61.929,35.374,61.732,34.919,61.307,34.919z"/>
		</g>
	</g>
</g>
</svg>
