<?xml version="1.0" encoding="utf-8"?>
<!-- Generator: Adobe Illustrator 23.0.1, SVG Export Plug-In . SVG Version: 6.00 Build 0)  -->
<svg version="1.1" id="レイヤー_1" xmlns="http://www.w3.org/2000/svg" xmlns:xlink="http://www.w3.org/1999/xlink" x="0px"
	 y="0px" viewBox="0 0 80 80" style="enable-background:new 0 0 80 80;" xml:space="preserve">
<style type="text/css">
	.st0{fill:#FFFFFF;}
</style>
<path class="st0" d="M47.1,73.8h-23c-2.4,0-2.4,2.7,0,2.7h23C49.3,76.5,49.3,73.8,47.1,73.8z M59.5,73.8h-5.4c-2.2,0-2.2,2.7,0,2.7
	h5.4C61.9,76.5,61.9,73.8,59.5,73.8z M2.9,8.1h3.4c2,0,2-2.7,0-2.7H2.9C0.8,5.4,0.8,8.1,2.9,8.1z M12.2,8.1h11.1
	c2.1,0,2.1-2.7,0-2.7H12.2C10.2,5.4,10.2,8.1,12.2,8.1z M16.6,14.4h15c2.4,0,2.4-2.7,0-2.7h-15C14.4,11.7,14.4,14.4,16.6,14.4z
	 M65.5,26.6c3.7,0,6.7-3,6.7-6.7c0-3.7-3-6.7-6.7-6.7s-6.7,3-6.7,6.7C58.8,23.6,61.8,26.6,65.5,26.6z M65.5,15.8
	c2.3,0,4.1,1.8,4.1,4.1c0,2.3-1.8,4.1-4.1,4.1c-2.3,0-4.1-1.8-4.1-4.1C61.5,17.6,63.3,15.8,65.5,15.8z M78.1,66.7h-5.6v-5
	c0-2.1-2.7-2.1-2.7,0v3.6l-9.4-16.9c-1.2-1.8-3.3-0.7-2.3,1.3l9.4,17H50.9l-9.1-29.2c-0.8-1.9-2.5-1.9-3.2,0l-9,29.2H12.6l27.5-49.7
	l14,25.4c1.1,1.7,3.2,0.7,2.3-1.3L41.6,14.2l5.1-9.1c1-1.8-1.3-3.1-2.3-1.3l-4.3,7.7l-4.3-7.7c-0.9-1.7-3.2-0.4-2.3,1.3l5.1,9.1
	L10.3,65.3v-3.6c0-1.7-2.7-1.7-2.7,0v5H2.1c-2.4,0-2.4,2.7,0,2.7h76C80.3,69.3,80.3,66.7,78.1,66.7z M32.5,66.7l7.7-25.2l7.7,25.2
	H32.5z"/>
</svg>
