<?xml version="1.0" encoding="utf-8"?>
<!-- Generator: Adobe Illustrator 23.0.1, SVG Export Plug-In . SVG Version: 6.00 Build 0)  -->
<svg version="1.1" id="レイヤー_1" xmlns="http://www.w3.org/2000/svg" xmlns:xlink="http://www.w3.org/1999/xlink" x="0px"
	 y="0px" viewBox="0 0 80 80" style="enable-background:new 0 0 80 80;" xml:space="preserve">
<style type="text/css">
	.st0{fill:#FFFFFF;}
</style>
<path class="st0" d="M71.83,19.15h-7.91h-5h-4.79v-8.42c0-2.48-2.02-4.5-4.5-4.5h-10.1c-0.83,0-1.5,0.67-1.5,1.5s0.67,1.5,1.5,1.5
	h10.09c0.83,0,1.5,0.67,1.5,1.5v8.42h-2.33v-5.54c0-1.38-1.12-2.5-2.5-2.5H33.78c-1.38,0-2.5,1.12-2.5,2.5v5.54h-2.33v-8.42
	c0-0.83,0.67-1.5,1.5-1.5h3.02c0.83,0,1.5-0.67,1.5-1.5s-0.67-1.5-1.5-1.5h-3.02c-2.48,0-4.5,2.02-4.5,4.5v8.42h-4.87h-5H8.17
	c-3.58,0-6.5,2.92-6.5,6.5v41.63c0,3.58,2.92,6.5,6.5,6.5h63.65c3.58,0,6.5-2.92,6.5-6.5V25.65C78.33,22.06,75.41,19.15,71.83,19.15
	z M62.42,22.15v19.73h-2V22.15H62.42z M63.92,48.97h-5c-0.06,0-0.12,0.01-0.17,0.02H57.9v-4.05h7.04v4.05H64.1
	C64.03,48.98,63.98,48.97,63.92,48.97z M34.28,14.11h11.51v5.04H34.28V14.11z M19.58,22.15v7.45c0,0.83,0.67,1.5,1.5,1.5
	s1.5-0.67,1.5-1.5v-7.45h4.87h5.33h9.21c1.22,0.61,3.82,2.22,4.71,4.23c0.89,1.99,1.04,5.33-0.42,8.59
	c-0.27-0.01-0.54-0.01-0.82,0.06l-5.9,1.31c-0.8,0.18-1.54,0.69-2.01,1.39L30.28,48.5c-0.99,1.46-0.68,3.41,0.69,4.33l6.89,4.65
	c0.48,0.33,1.04,0.48,1.59,0.48c1.01,0,2.04-0.52,2.68-1.46l1.29-1.9c0.46-0.69,0.28-1.62-0.4-2.08c-0.69-0.46-1.62-0.28-2.08,0.4
	l-1.29,1.9c-0.07,0.1-0.15,0.14-0.12,0.17l-6.81-4.57c-0.01-0.02-0.01-0.11,0.07-0.23l7.27-10.77c0.06-0.08,0.13-0.13,0.18-0.14
	l5.76-1.3l0.97,5.85c0.01,0.04,0,0.12-0.07,0.22l-2.56,3.79c-0.46,0.69-0.28,1.62,0.4,2.08s1.62,0.28,2.08-0.4l2.56-3.79
	c0.48-0.71,0.67-1.58,0.54-2.39l-0.99-5.96c-0.04-0.22-0.1-0.43-0.18-0.62c2.27-4.55,1.81-9.06,0.68-11.6
	c-0.52-1.16-1.34-2.17-2.24-3.01h0.08h5.33h4.79v19.79H56.4c-0.83,0-1.5,0.67-1.5,1.5v7.05c0,0.83,0.67,1.5,1.5,1.5h1.02v18.79
	H22.58V51.99h1.02c0.83,0,1.5-0.67,1.5-1.5v-7.05c0-0.83-0.67-1.5-1.5-1.5h-1.02v-5.28c0-0.83-0.67-1.5-1.5-1.5s-1.5,0.67-1.5,1.5
	v5.22h-2V22.15H19.58z M21.08,48.97h-5c-0.06,0-0.12,0.01-0.17,0.02h-0.84v-4.05h7.03v4.05h-0.84
	C21.2,48.98,21.14,48.97,21.08,48.97z M17.58,51.99h2v18.69h-2V51.99z M4.67,67.27V25.65c0-1.93,1.57-3.5,3.5-3.5h6.41v19.79h-1.02
	c-0.83,0-1.5,0.67-1.5,1.5v7.05c0,0.83,0.67,1.5,1.5,1.5h1.02v18.79H8.17C6.25,70.77,4.67,69.2,4.67,67.27z M75.33,67.27
	c0,1.93-1.57,3.5-3.5,3.5h-6.41v-4.8c0-0.83-0.67-1.5-1.5-1.5s-1.5,0.67-1.5,1.5v4.71h-2V51.99h2v7.84c0,0.83,0.67,1.5,1.5,1.5
	s1.5-0.67,1.5-1.5v-7.84h1.02c0.83,0,1.5-0.67,1.5-1.5v-7.05c0-0.83-0.67-1.5-1.5-1.5h-1.02V22.15h6.41c1.93,0,3.5,1.57,3.5,3.5
	V67.27z"/>
</svg>
