<?xml version="1.0" encoding="utf-8"?>
<!-- Generator: Adobe Illustrator 23.0.2, SVG Export Plug-In . SVG Version: 6.00 Build 0)  -->
<svg version="1.1" id="レイヤー_1" xmlns="http://www.w3.org/2000/svg" xmlns:xlink="http://www.w3.org/1999/xlink" x="0px"
	 y="0px" viewBox="0 0 80 80" style="enable-background:new 0 0 80 80;" xml:space="preserve">
<style type="text/css">
	.st0{fill:#FFFFFF;}
</style>
<g>
	<g>
		<path class="st0" d="M61.5,50.8c-0.8,0-1.5-0.7-1.5-1.5V32.3c0-0.8,0.7-1.5,1.5-1.5s1.5,0.7,1.5,1.5v17.1
			C63,50.2,62.4,50.8,61.5,50.8z"/>
		<path class="st0" d="M61.5,72.9H18.5c-0.8,0-1.5-0.7-1.5-1.5V32.3c0-0.8,0.7-1.5,1.5-1.5s1.5,0.7,1.5,1.5v37.6H60V59.3
			c0-0.8,0.7-1.5,1.5-1.5s1.5,0.7,1.5,1.5v12.1C63,72.2,62.4,72.9,61.5,72.9z"/>
		<path class="st0" d="M62,44.3c-0.7,0-1.4-0.5-1.5-1.3c-0.1-0.8,0.5-1.6,1.3-1.7l13-1.8c-0.5-4.1-2.4-16.4-8-22
			c-6.7-6.7-17.3-6.8-17.4-6.8h-19c-0.1,0-10.7,0.1-17.4,6.8c-5.6,5.6-7.5,17.9-8,22l13,1.8c0.8,0.1,1.4,0.9,1.3,1.7
			c-0.1,0.8-0.9,1.4-1.7,1.3l-14.5-2c-0.8-0.1-1.3-0.8-1.3-1.6C2.1,40,3.4,23,11,15.4c7.6-7.6,19-7.7,19.5-7.7h19
			c0.5,0,11.9,0.1,19.5,7.7c7.5,7.5,8.9,24.6,9,25.3c0.1,0.8-0.5,1.5-1.3,1.6l-14.5,2C62.2,44.3,62.1,44.3,62,44.3z"/>
		<path class="st0" d="M40,20c-5.2,0-9.5-4.2-9.5-9.5c0-0.8,0.7-1.5,1.5-1.5s1.5,0.7,1.5,1.5c0,3.6,2.9,6.5,6.5,6.5s6.5-2.9,6.5-6.5
			c0-0.8,0.7-1.5,1.5-1.5c0.8,0,1.5,0.7,1.5,1.5C49.5,15.8,45.2,20,40,20z"/>
		<path class="st0" d="M40,26.5c-8.8,0-16-7.2-16-16c0-0.8,0.7-1.5,1.5-1.5S27,9.7,27,10.6c0,7.2,5.8,13,13,13c7.2,0,13-5.8,13-13
			c0-0.8,0.7-1.5,1.5-1.5c0.8,0,1.5,0.7,1.5,1.5C56,19.4,48.8,26.5,40,26.5z"/>
		<path class="st0" d="M30.8,66H18.9c-0.8,0-1.5-0.7-1.5-1.5s0.7-1.5,1.5-1.5h11.8c0.8,0,1.5,0.7,1.5,1.5S31.6,66,30.8,66z"/>
		<path class="st0" d="M39.3,66h-2.6c-0.8,0-1.5-0.7-1.5-1.5s0.7-1.5,1.5-1.5h2.6c0.8,0,1.5,0.7,1.5,1.5S40.1,66,39.3,66z"/>
	</g>
</g>
</svg>
