<?xml version="1.0" encoding="utf-8"?>
<!-- Generator: Adobe Illustrator 23.0.4, SVG Export Plug-In . SVG Version: 6.00 Build 0)  -->
<svg version="1.1" id="レイヤー_1" xmlns="http://www.w3.org/2000/svg" xmlns:xlink="http://www.w3.org/1999/xlink" x="0px"
	 y="0px" viewBox="0 0 80 80" style="enable-background:new 0 0 80 80;" xml:space="preserve">
<style type="text/css">
	.st0{fill:#FFFFFF;}
</style>
<g>
	<path class="st0" d="M60.9,73.6c-0.2,0-0.5-0.1-0.7-0.2L40,62.8L19.8,73.4c-0.5,0.3-1.1,0.2-1.6-0.1c-0.5-0.3-0.7-0.9-0.6-1.5
		l3.9-22.5L5.2,33.5c-0.4-0.4-0.6-1-0.4-1.5C5,31.4,5.5,31,6,30.9l22.5-3.3L38.7,7.2c0.3-0.5,0.8-0.8,1.3-0.8c0.6,0,1.1,0.3,1.3,0.8
		l10.4,21.1c0.4,0.7,0.1,1.6-0.7,2c-0.7,0.4-1.6,0.1-2-0.7L40,11.3l-9.1,18.4c-0.2,0.4-0.6,0.7-1.1,0.8l-20.3,3l14.7,14.3
		c0.4,0.3,0.5,0.8,0.4,1.3l-3.5,20.2l18.2-9.6c0.4-0.2,1-0.2,1.4,0l18.2,9.6l-3.5-20.2c-0.1-0.5,0.1-1,0.4-1.3l14.7-14.3l-12.2-1.8
		c-0.8-0.1-1.4-0.9-1.3-1.7s0.9-1.4,1.7-1.3L74,30.9c0.6,0.1,1,0.5,1.2,1c0.2,0.5,0,1.1-0.4,1.5L58.5,49.4l3.9,22.5
		c0.1,0.6-0.1,1.1-0.6,1.5C61.5,73.5,61.2,73.6,60.9,73.6z"/>
	<g>
		<polygon class="st0" points="40,7.9 29.6,29 40,45.2 		"/>
		<polygon class="st0" points="40,45.2 6.2,32.4 23.1,48.9 		"/>
		<polygon class="st0" points="40,45.2 73.8,32.4 56.9,48.9 		"/>
		<polygon class="st0" points="19.1,72.1 40,45.2 60.9,72.1 40,61.1 		"/>
	</g>
</g>
</svg>
