<?xml version="1.0" encoding="utf-8"?>
<!-- Generator: Adobe Illustrator 23.0.1, SVG Export Plug-In . SVG Version: 6.00 Build 0)  -->
<svg version="1.1" id="レイヤー_1" xmlns="http://www.w3.org/2000/svg" xmlns:xlink="http://www.w3.org/1999/xlink" x="0px"
	 y="0px" viewBox="0 0 80 80" style="enable-background:new 0 0 80 80;" xml:space="preserve">
<style type="text/css">
	.st0{fill:#FFFFFF;}
</style>
<g>
	<path class="st0" d="M40.46,23.08c4.54,0,8.24-3.7,8.24-8.24S45,6.6,40.46,6.6s-8.24,3.7-8.24,8.24S35.91,23.08,40.46,23.08z
		 M40.46,9.6c2.89,0,5.24,2.35,5.24,5.24s-2.35,5.24-5.24,5.24s-5.24-2.35-5.24-5.24S37.57,9.6,40.46,9.6z"/>
	<path class="st0" d="M74.17,43.11h-14.2V36.1c0-6.31-5.13-11.44-11.44-11.44H32.38c-6.31,0-11.44,5.13-11.44,11.44v7.01H6.77
		c-2.2,0-3.99,1.79-3.99,3.98v26.83c0,2.2,1.79,3.99,3.99,3.99h67.4c2.2,0,3.98-1.79,3.98-3.99V47.09
		C78.15,44.89,76.37,43.11,74.17,43.11z M23.94,36.1c0-4.65,3.79-8.44,8.44-8.44h16.15c4.65,0,8.44,3.79,8.44,8.44v6.3h-5.98v-7.83
		c0-0.83-0.67-1.5-1.5-1.5s-1.5,0.67-1.5,1.5v7.83H32.92v-7.83c0-0.83-0.67-1.5-1.5-1.5s-1.5,0.67-1.5,1.5v7.83h-5.98
		C23.94,42.4,23.94,36.1,23.94,36.1z M5.78,73.92V54.79h15.16v12.42c0,0.83,0.67,1.5,1.5,1.5s1.5-0.67,1.5-1.5V54.79h15.01v20.12
		H23.94v-2.78c0-0.83-0.67-1.5-1.5-1.5s-1.5,0.67-1.5,1.5v2.78H6.77C6.23,74.91,5.78,74.47,5.78,73.92z M56.97,54.79v20.12H41.96
		V54.79H56.97z M74.17,74.91h-14.2V54.79h5.81c0.83,0,1.5-0.67,1.5-1.5s-0.67-1.5-1.5-1.5h-60V47.1c0-0.54,0.44-0.98,0.99-0.98h67.4
		c0.54,0,0.98,0.44,0.98,0.98v4.69h-3.88c-0.83,0-1.5,0.67-1.5,1.5s0.67,1.5,1.5,1.5h3.88v19.14
		C75.15,74.47,74.71,74.91,74.17,74.91z"/>
	<path class="st0" d="M71.71,23.85c0.25,0.15,0.52,0.22,0.78,0.22c0.5,0,0.99-0.25,1.28-0.71c0.44-0.7,0.22-1.63-0.48-2.06
		c-0.63-0.39-2.37-1.82-2.16-3.2c0.24-1.58,1.15-2.36,2.3-3.34c1.24-1.06,2.65-2.27,2.98-4.54c0.64-4.36-3.34-7.53-3.51-7.66
		c-0.65-0.51-1.59-0.39-2.1,0.25c-0.51,0.65-0.4,1.59,0.25,2.1c0.03,0.02,2.78,2.24,2.39,4.87c-0.16,1.1-0.82,1.71-1.96,2.69
		c-1.29,1.11-2.9,2.48-3.32,5.17C67.61,21.27,71.54,23.75,71.71,23.85z"/>
	<path class="st0" d="M60.38,23.83c0.25,0.16,0.54,0.24,0.82,0.24c0.49,0,0.97-0.24,1.26-0.68c0.45-0.69,0.25-1.62-0.44-2.07
		c-0.02-0.02-2.31-1.58-2.17-3.33c0.11-1.34,0.86-1.93,2.17-2.86c1.29-0.91,2.9-2.05,3.11-4.39c0.07-0.82-0.53-1.55-1.36-1.63
		c-0.84-0.08-1.55,0.53-1.63,1.36c-0.08,0.91-0.69,1.39-1.85,2.21c-1.35,0.96-3.21,2.27-3.43,5.08
		C56.57,21.32,60.23,23.73,60.38,23.83z"/>
	<path class="st0" d="M8.35,20.1C7.37,21,6.9,21.34,6.9,21.34c-0.68,0.48-0.84,1.42-0.36,2.09c0.29,0.41,0.76,0.63,1.23,0.63
		c0.3,0,0.6-0.09,0.87-0.28c0.06-0.04,0.62-0.44,1.75-1.48c0.61-0.56,0.65-1.51,0.09-2.12C9.91,19.58,8.96,19.54,8.35,20.1z"/>
	<path class="st0" d="M7.34,14.92c1.04,0.72,1.68,1.2,1.8,1.9c0.13,0.73,0.76,1.24,1.48,1.24c0.09,0,0.17-0.01,0.26-0.02
		c0.82-0.14,1.36-0.92,1.22-1.74c-0.35-1.95-1.84-3-3.04-3.83c-1.28-0.89-2.07-1.5-2.24-2.68C6.44,7.17,9.16,4.96,9.21,4.92
		c0.65-0.51,0.76-1.45,0.25-2.1c-0.5-0.66-1.45-0.77-2.1-0.26c-0.17,0.13-4.15,3.3-3.51,7.66C4.22,12.74,6.02,14,7.34,14.92z"/>
	<path class="st0" d="M18.13,14.75c1.15,0.98,2.06,1.76,2.3,3.34c0.21,1.38-1.53,2.81-2.15,3.2c-0.71,0.43-0.92,1.36-0.49,2.06
		c0.28,0.46,0.78,0.71,1.28,0.71c0.27,0,0.54-0.07,0.79-0.22c0.17-0.1,4.1-2.57,3.54-6.21c-0.41-2.68-2.02-4.06-3.32-5.17
		c-1.15-0.98-1.8-1.59-1.96-2.69c-0.38-2.61,2.34-4.83,2.4-4.87c0.65-0.51,0.76-1.45,0.25-2.1s-1.45-0.77-2.11-0.26
		c-0.17,0.13-4.15,3.3-3.51,7.66C15.48,12.49,16.88,13.69,18.13,14.75z"/>
	<path class="st0" d="M59.83,4.97c0.27,0.18,1.13,0.89,1.6,1.72c0.28,0.49,0.78,0.76,1.31,0.76c0.25,0,0.5-0.06,0.74-0.2
		c0.72-0.41,0.97-1.32,0.57-2.04c-0.89-1.57-2.35-2.6-2.51-2.71c-0.68-0.47-1.62-0.3-2.09,0.39C58.98,3.57,59.15,4.5,59.83,4.97z"/>
</g>
</svg>
