<?xml version="1.0" encoding="utf-8"?>
<!-- Generator: Adobe Illustrator 23.0.1, SVG Export Plug-In . SVG Version: 6.00 Build 0)  -->
<svg version="1.1" id="レイヤー_1" xmlns="http://www.w3.org/2000/svg" xmlns:xlink="http://www.w3.org/1999/xlink" x="0px"
	 y="0px" viewBox="0 0 80 80" style="enable-background:new 0 0 80 80;" xml:space="preserve">
<style type="text/css">
	.st0{fill:#FFFFFF;}
</style>
<g>
	<path class="st0" d="M71.58,4.23h-4.34c-0.83,0-1.5,0.67-1.5,1.5s0.67,1.5,1.5,1.5h4.34c2.26,0,4.09,1.84,4.09,4.09v47.16h-3.92
		H61.8v-2c0-1.98-1.61-3.6-3.6-3.6h-8.92c-1.98,0-3.6,1.61-3.6,3.6v2H31.82V11.32c0-2.26,1.84-4.09,4.09-4.09h23.91
		c0.83,0,1.5-0.67,1.5-1.5s-0.67-1.5-1.5-1.5h-23.9c-3.91,0-7.09,3.18-7.09,7.09v49l4.06,8.32h1.86v4.62c0,0.74,0.23,1.43,0.61,2
		H18.04c-0.83,0-1.5,0.67-1.5,1.5s0.67,1.5,1.5,1.5h59.05c0.83,0,1.5-0.67,1.5-1.5s-0.67-1.5-1.5-1.5h-5.08
		c0.39-0.57,0.61-1.26,0.61-2v-4.62h1.99l4.06-8.32v-49C78.67,7.41,75.49,4.23,71.58,4.23z M48.69,56.48c0-0.33,0.27-0.6,0.6-0.6
		h8.92c0.33,0,0.6,0.27,0.6,0.6v2H48.69V56.48z M37.74,68.64h4.22v4.62c0,0.33-0.27,0.6-0.6,0.6h-3.02c-0.33,0-0.6-0.27-0.6-0.6
		C37.74,73.26,37.74,68.64,37.74,68.64z M44.34,75.27c0.39-0.57,0.61-1.26,0.61-2v-4.62H62.4v4.62c0,0.74,0.23,1.43,0.61,2H44.34z
		 M69.62,73.26c0,0.33-0.27,0.6-0.6,0.6H66c-0.33,0-0.6-0.27-0.6-0.6v-4.62h4.22V73.26z M72.74,65.64h-0.12H62.41H44.96h-10.2
		l-2.03-4.17H45.7h16.1h9.95h3.02L72.74,65.64z"/>
	<path class="st0" d="M68.72,46.87c-2.64,0-4.79,2.15-4.79,4.79s2.15,4.79,4.79,4.79s4.79-2.15,4.79-4.79S71.36,46.87,68.72,46.87z
		 M68.72,53.45c-0.99,0-1.79-0.8-1.79-1.79s0.8-1.79,1.79-1.79s1.79,0.8,1.79,1.79S69.7,53.45,68.72,53.45z"/>
	<path class="st0" d="M38.65,46.87c-2.64,0-4.79,2.15-4.79,4.79s2.15,4.79,4.79,4.79s4.79-2.15,4.79-4.79S41.29,46.87,38.65,46.87z
		 M38.65,53.45c-0.99,0-1.79-0.8-1.79-1.79s0.8-1.79,1.79-1.79s1.79,0.8,1.79,1.79S39.63,53.45,38.65,53.45z"/>
	<path class="st0" d="M69.76,20.35H37.73c-1.95,0-3.54,1.59-3.54,3.54v16.86c0,1.95,1.59,3.54,3.54,3.54h3.8
		c0.83,0,1.5-0.67,1.5-1.5s-0.67-1.5-1.5-1.5h-3.8c-0.29,0-0.54-0.24-0.54-0.54V23.89c0-0.3,0.24-0.54,0.54-0.54h32.03
		c0.29,0,0.54,0.24,0.54,0.54v16.86c0,0.3-0.24,0.54-0.54,0.54H47.97c-0.83,0-1.5,0.67-1.5,1.5s0.67,1.5,1.5,1.5h21.79
		c1.95,0,3.54-1.59,3.54-3.54V23.89C73.3,21.94,71.71,20.35,69.76,20.35z"/>
	<path class="st0" d="M68.84,9.03H38.66c-2.3,0-4.17,1.87-4.17,4.17v0.73c0,2.3,1.87,4.17,4.17,4.17h30.18
		c2.3,0,4.17-1.87,4.17-4.17V13.2C73.01,10.9,71.14,9.03,68.84,9.03z M70.01,13.92c0,0.65-0.53,1.17-1.17,1.17H38.66
		c-0.65,0-1.17-0.53-1.17-1.17V13.2c0-0.65,0.53-1.17,1.17-1.17h30.18c0.65,0,1.17,0.53,1.17,1.17
		C70.01,13.2,70.01,13.92,70.01,13.92z"/>
	<path class="st0" d="M10.39,75.27H2.83c-0.83,0-1.5,0.67-1.5,1.5s0.67,1.5,1.5,1.5h7.56c0.83,0,1.5-0.67,1.5-1.5
		S11.22,75.27,10.39,75.27z"/>
	<path class="st0" d="M23.16,20.35c0.31-0.49,0.32-1.11,0.01-1.6s-0.86-0.76-1.44-0.7c-2.02,0.22-8.08,0.2-9.36-2.72
		c-0.33-0.76-1.21-1.11-1.97-0.78s-1.11,1.21-0.78,1.97c1.42,3.26,5.22,4.27,8.27,4.54c-1.21,0.65-2.72,1.08-4.35,0.8
		c-3.76-0.66-5.84-1.85-7.68-4.42c-1.79-2.49-1.24-6.76,0.4-9.19c1.22-1.81,2.78-2.7,4.16-3.14C9.71,6.2,9.04,7.49,8.71,8.89
		c-0.19,0.81,0.31,1.61,1.12,1.8c0.81,0.19,1.61-0.31,1.8-1.12c0.59-2.52,2.87-4.78,3.31-5.2c0.42-0.4,0.57-0.99,0.4-1.54
		S14.7,1.88,14.13,1.8C13.87,1.76,7.61,0.9,3.78,6.57C1.53,9.9,0.79,15.53,3.42,19.2c2.3,3.2,5.09,4.83,9.6,5.62
		c0.53,0.09,1.05,0.13,1.55,0.13C18.8,24.95,22.12,21.98,23.16,20.35z"/>
</g>
</svg>
