<?xml version="1.0" encoding="utf-8"?>
<!-- Generator: Adobe Illustrator 23.0.2, SVG Export Plug-In . SVG Version: 6.00 Build 0)  -->
<svg version="1.1" id="レイヤー_1" xmlns="http://www.w3.org/2000/svg" xmlns:xlink="http://www.w3.org/1999/xlink" x="0px"
	 y="0px" viewBox="0 0 80 80" style="enable-background:new 0 0 80 80;" xml:space="preserve">
<style type="text/css">
	.st0{fill:#FFFFFF;}
</style>
<g>
	<path class="st0" d="M15,36c-0.6,0.2-1.3,0.2-1.9,0.1c-1.2-0.2-2.2-0.8-2.9-1.8c-1.4-2-1-4.8,1-6.2l1.7-1.2c2-1.4,4.8-1,6.2,1
		c1.4,2,1,4.8-1,6.2l-1.7,1.2C16,35.6,15.5,35.8,15,36L15,36z M14.9,28.5c-0.2,0.1-0.5,0.2-0.7,0.3L12.6,30
		c-0.9,0.7-1.1,1.9-0.5,2.8c0.7,0.9,1.9,1.1,2.8,0.5l1.7-1.2c0.9-0.7,1.1-1.9,0.5-2.8C16.6,28.5,15.7,28.3,14.9,28.5L14.9,28.5z
		 M14.9,28.5"/>
	<path class="st0" d="M25.5,28.4c-0.6,0.2-1.3,0.2-1.9,0.1c-1.2-0.2-2.2-0.8-2.9-1.8c-0.7-1-1-2.2-0.8-3.3c0.2-1.2,0.8-2.2,1.8-2.9
		l1.7-1.2c1-0.7,2.1-1,3.3-0.8c1.2,0.2,2.2,0.8,2.9,1.8c1.4,2,1,4.8-1,6.2L27,27.7C26.5,28,26,28.3,25.5,28.4L25.5,28.4z M25.5,20.9
		c-0.2,0.1-0.4,0.2-0.6,0.3l-1.7,1.2c-0.4,0.3-0.7,0.8-0.8,1.3c-0.1,0.5,0,1.1,0.4,1.5c0.7,0.9,1.9,1.1,2.8,0.5l1.7-1.2
		c0.4-0.3,0.7-0.8,0.8-1.3c0.1-0.5,0-1.1-0.4-1.5C27.2,21,26.3,20.7,25.5,20.9L25.5,20.9z M25.5,20.9"/>
	<path class="st0" d="M36.1,20.8c-0.6,0.2-1.3,0.2-1.9,0.1c-1.2-0.2-2.2-0.8-2.9-1.8c-0.7-1-1-2.2-0.8-3.3c0.2-1.2,0.8-2.2,1.8-2.9
		l1.7-1.2c1-0.7,2.2-1,3.3-0.8c1.2,0.2,2.2,0.8,2.9,1.8c0.7,1,1,2.1,0.8,3.3c-0.2,1.2-0.8,2.2-1.8,2.9l-1.7,1.2
		C37.1,20.4,36.6,20.7,36.1,20.8L36.1,20.8z M36.1,13.3c-0.2,0.1-0.4,0.2-0.6,0.3l-1.7,1.2c-0.4,0.3-0.7,0.8-0.8,1.3
		c-0.1,0.5,0,1.1,0.4,1.5c0.3,0.4,0.8,0.7,1.3,0.8c0.5,0.1,1.1,0,1.5-0.3l1.7-1.2c0.4-0.3,0.7-0.8,0.8-1.3c0.1-0.5,0-1.1-0.4-1.5
		c-0.3-0.4-0.8-0.7-1.3-0.8C36.7,13.2,36.4,13.2,36.1,13.3L36.1,13.3z M36.1,13.3"/>
	<path class="st0" d="M46.7,13.2c-0.6,0.2-1.3,0.2-1.9,0.1c-1.2-0.2-2.2-0.8-2.9-1.8c-1.4-2-1-4.8,1-6.2l1.7-1.2c2-1.4,4.8-1,6.2,1
		c0.7,1,1,2.2,0.8,3.3c-0.2,1.2-0.8,2.2-1.8,2.9l-1.7,1.2C47.7,12.9,47.2,13.1,46.7,13.2L46.7,13.2z M46.7,5.7
		c-0.2,0.1-0.5,0.2-0.7,0.3l-1.7,1.2c-0.9,0.7-1.1,1.9-0.5,2.8c0.3,0.4,0.8,0.7,1.3,0.8c0.5,0.1,1.1,0,1.5-0.4l1.7-1.2
		C48.8,9,49.1,8.6,49.2,8c0.1-0.5,0-1.1-0.4-1.5c-0.3-0.4-0.8-0.7-1.3-0.8C47.2,5.7,46.9,5.7,46.7,5.7L46.7,5.7z M46.7,5.7"/>
	<path class="st0" d="M6.5,65.4c-0.3,0.1-0.7,0-1-0.2c-0.6-0.4-0.7-1.1-0.4-1.7L13,51.3c0.4-0.6,1.1-0.7,1.7-0.4
		c0.6,0.4,0.7,1.1,0.4,1.7L7.2,64.9C7.1,65.2,6.8,65.3,6.5,65.4L6.5,65.4z M6.5,65.4"/>
	<path class="st0" d="M13.8,69.7c-0.3,0.1-0.7,0-1-0.1c-0.6-0.4-0.7-1.1-0.4-1.7l7.8-12.3c0.4-0.6,1.1-0.7,1.7-0.4
		c0.6,0.4,0.7,1.1,0.4,1.7l-7.8,12.3C14.3,69.4,14,69.6,13.8,69.7L13.8,69.7z M13.8,69.7"/>
	<path class="st0" d="M21,73.9c-0.3,0.1-0.7,0-1-0.2c-0.6-0.4-0.7-1.1-0.4-1.7l4.7-7.4c0.4-0.6,1.1-0.7,1.7-0.4
		c0.6,0.4,0.7,1.1,0.4,1.7l-4.7,7.4C21.6,73.7,21.3,73.9,21,73.9L21,73.9z M21,73.9"/>
	<path class="st0" d="M51.9,14.7c0,0.3-0.2,0.6-0.5,0.9c-0.5,0.4-1.3,0.3-1.7-0.2l-1.9-2.7c-0.4-0.5-0.3-1.3,0.2-1.7
		c0.5-0.4,1.3-0.3,1.7,0.2l1.9,2.7C51.8,14.1,51.9,14.4,51.9,14.7L51.9,14.7z M51.9,14.7"/>
	<path class="st0" d="M41.3,22.9c0,0.3-0.2,0.6-0.5,0.9c-0.5,0.4-1.3,0.3-1.7-0.2l-1.9-2.7c-0.4-0.5-0.3-1.3,0.2-1.7
		c0.5-0.4,1.3-0.3,1.7,0.2l1.9,2.7C41.2,22.3,41.3,22.7,41.3,22.9L41.3,22.9z M41.3,22.9"/>
	<path class="st0" d="M20.5,37.3c0,0.3-0.2,0.6-0.5,0.9c-0.5,0.4-1.3,0.3-1.7-0.2l-1.9-2.7c-0.4-0.5-0.3-1.3,0.2-1.7
		c0.5-0.4,1.3-0.3,1.7,0.2l1.9,2.7C20.4,36.7,20.5,37,20.5,37.3L20.5,37.3z M20.5,37.3"/>
	<path class="st0" d="M28.3,78.2c-0.3,0.1-0.7,0-1-0.2c-0.6-0.4-0.7-1.1-0.4-1.7l7.8-12.3c0.4-0.6,1.1-0.7,1.7-0.4
		c0.6,0.4,0.9,1.1,0.6,1.6l-8,12.3C28.8,78,28.5,78.1,28.3,78.2L28.3,78.2z M28.3,78.2"/>
	<path class="st0" d="M34.1,29.2c0.6-0.3,24.2-16.9,25.4-17.2c0.9-0.4,1.9-0.6,3-0.7c2.4-0.1,4.8,1.1,6.8,2.5c2.8,2,4.5,5.1,4.7,8.6
		c0.3,4.6-2.3,9-6.4,10.9c-2.7,1.3-5.6,1.5-8.4,0.6c-0.6-0.2-1.7-0.1-1.9,0.6c-0.3,0.8,0.3,1.3,0.7,1.5c0.4,0.2,1.6,0.5,1.6,0.5
		c3.1,0.7,6.2,0.3,9.1-1c5-2.4,8.1-7.7,7.8-13.3c-0.2-4.2-2.3-8.1-5.7-10.5C67.3,9.2,63.9,8.2,60.6,9c-1.1,0.3-2.3,1-3,1.4
		C51.9,13.8,33.4,26.6,32.9,27c-0.5,0.5-1.3,1.2-0.8,2C32.6,29.9,33.5,29.5,34.1,29.2z"/>
	<path class="st0" d="M23.9,33.7c-0.5,0.3-6.6,4.9-11.6,8.6c-1.2,0.9-1.7,2.3-1.3,3.7l1.6,6c0.1,0.3,0.3,0.6,0.6,0.7l22,13.1
		c0.3,0.2,0.6,0.2,0.9,0.1c0.2-0.1,0.5-0.2,0.6-0.4c2.9-3.6,7.1-3.6,9.3-3.3c1.6,0.2,3.1-0.6,3.8-2.1c0,0,7.1-17.4,7.3-17.9
		s0.6-1.4-0.4-1.9c-1-0.4-1.5,0.4-1.9,1.1c-0.4,0.7-7.2,17.8-7.2,17.8c-0.2,0.4-0.6,0.7-1.1,0.6c-2.6-0.4-7.2-0.4-10.8,3.3L14.9,51
		l-1.5-5.5c-0.1-0.4,0-0.9,0.4-1.1c7.3-5.4,11.1-8.1,11.6-8.5s1.2-1,0.7-1.9C25.6,33,24.4,33.4,23.9,33.7z"/>
</g>
</svg>
