<?xml version="1.0" encoding="utf-8"?>
<!-- Generator: Adobe Illustrator 23.0.4, SVG Export Plug-In . SVG Version: 6.00 Build 0)  -->
<svg version="1.1" id="レイヤー_1" xmlns="http://www.w3.org/2000/svg" xmlns:xlink="http://www.w3.org/1999/xlink" x="0px"
	 y="0px" viewBox="0 0 80 80" style="enable-background:new 0 0 80 80;" xml:space="preserve">
<style type="text/css">
	.st0{fill:#FFFFFF;}
</style>
<g>
	<path class="st0" d="M31.9,76c-0.4,0-0.8,0-1.2-0.2c-2.1-0.5-3.4-2.5-4.6-4.2c-0.8-1.1-1.6-2.3-2.4-2.8c-0.8-0.5-2.3-0.5-3.6-0.6
		c-2.1-0.1-4.4-0.2-6-1.8c-1.5-1.5-1.7-3.7-1.9-5.9c-0.1-1.4-0.2-2.8-0.7-3.7C11,56,9.9,55.2,8.7,54.5C7,53.3,5,52,4.4,49.9
		c-0.6-2.2,0.5-4.3,1.4-6.2c0.6-1.2,1.2-2.5,1.2-3.4c0-1-0.7-2.3-1.3-3.5c-1-1.9-2-3.9-1.4-6c0.5-2.1,2.5-3.4,4.2-4.6
		c1.1-0.8,2.3-1.6,2.8-2.4s0.5-2.3,0.6-3.6c0.1-2.1,0.2-4.4,1.8-6c1.5-1.5,3.7-1.7,5.9-1.9c1.4-0.1,2.8-0.2,3.7-0.7
		c0.8-0.5,1.6-1.6,2.3-2.8C26.7,7,28,5,30.1,4.4c2.2-0.6,4.3,0.5,6.2,1.4c1.2,0.6,2.5,1.2,3.4,1.2c1,0,2.3-0.7,3.5-1.3
		c1.9-1,3.9-2,6-1.4c2.1,0.5,3.4,2.5,4.6,4.2c0.8,1.1,1.6,2.3,2.4,2.8c0.8,0.5,2.3,0.5,3.6,0.6c2.1,0.1,4.4,0.2,6,1.8
		c1.5,1.5,1.7,3.7,1.9,5.9c0.1,1.4,0.2,2.8,0.7,3.7c0.5,0.8,1.6,1.6,2.8,2.3c1.8,1.1,3.8,2.5,4.4,4.6c0,0,0,0,0,0
		c0.6,2.2-0.5,4.3-1.4,6.2c-0.6,1.2-1.2,2.5-1.2,3.4c0,1,0.7,2.3,1.3,3.5c1,1.9,2,3.9,1.4,6c-0.5,2.1-2.5,3.4-4.2,4.6
		c-1.1,0.8-2.3,1.6-2.8,2.4c-0.5,0.8-0.5,2.3-0.6,3.6c-0.1,2.1-0.2,4.4-1.8,6c-1.5,1.5-3.7,1.7-5.9,1.9c-1.4,0.1-2.8,0.2-3.7,0.7
		c-0.8,0.5-1.6,1.6-2.3,2.8C53.3,73,52,75,49.9,75.6c-2.2,0.6-4.3-0.5-6.2-1.4c-1.2-0.6-2.5-1.2-3.4-1.2c0,0,0,0,0,0
		c-1,0-2.3,0.7-3.5,1.3C35.2,75.1,33.6,76,31.9,76z M31.4,7.2c-0.2,0-0.4,0-0.5,0.1c-1.1,0.3-2,1.7-2.9,3.1
		c-0.9,1.4-1.9,2.9-3.3,3.7c-1.5,0.9-3.3,1-5,1.1c-1.6,0.1-3.3,0.2-4,1c-0.7,0.7-0.8,2.4-0.9,4.1c-0.1,1.7-0.2,3.5-1,5
		c-0.8,1.5-2.3,2.5-3.7,3.4c-1.4,0.9-2.7,1.9-3,2.9c-0.3,1,0.5,2.5,1.2,3.9c0.8,1.6,1.6,3.2,1.6,4.9c0,1.6-0.8,3.2-1.5,4.7
		c-0.7,1.5-1.5,3-1.2,4.1c0.3,1.1,1.7,2,3.1,2.9c1.4,0.9,2.9,1.9,3.7,3.3c0.9,1.5,1,3.3,1.1,5c0.1,1.6,0.2,3.3,1,4
		c0.7,0.7,2.4,0.8,4.1,0.9c1.7,0.1,3.5,0.2,5,1c1.5,0.8,2.5,2.3,3.4,3.7c0.9,1.4,1.9,2.7,2.9,3c1,0.3,2.5-0.5,3.9-1.2
		c1.6-0.8,3.2-1.6,4.9-1.6c0,0,0,0,0,0c1.6,0,3.2,0.8,4.7,1.5c1.5,0.7,3,1.5,4.1,1.2c1.1-0.3,2-1.7,2.9-3.1c0.9-1.4,1.9-2.9,3.3-3.7
		c1.5-0.9,3.3-1,5-1.1c1.6-0.1,3.3-0.2,4-1c0.7-0.7,0.8-2.4,0.9-4.1c0.1-1.7,0.2-3.5,1-5s2.3-2.5,3.7-3.4c1.4-0.9,2.7-1.9,3-2.9
		c0.3-1-0.5-2.5-1.2-3.9c-0.8-1.6-1.6-3.2-1.6-4.9c0-1.6,0.8-3.2,1.5-4.7c0.7-1.5,1.5-3,1.2-4.1S71,29,69.6,28
		c-1.4-0.9-2.9-1.9-3.7-3.3c-0.9-1.5-1-3.3-1.1-5c-0.1-1.6-0.2-3.3-1-4c-0.7-0.7-2.4-0.8-4.1-0.9c-1.7-0.1-3.5-0.2-5-1
		c-1.5-0.8-2.5-2.3-3.4-3.7c-0.9-1.4-1.9-2.7-2.9-3c-1-0.3-2.5,0.5-3.9,1.2c-1.6,0.8-3.2,1.6-4.9,1.6c-1.6,0-3.2-0.8-4.7-1.5
		C33.8,7.8,32.5,7.2,31.4,7.2z"/>
	<path class="st0" d="M22,25.8c-0.3,0-0.7-0.1-1-0.4c-0.6-0.5-0.7-1.5-0.1-2.1c0.5-0.6,1-1.1,1.5-1.6c0.6-0.6,1.5-0.6,2.1,0
		c0.6,0.6,0.6,1.5,0,2.1c-0.5,0.5-0.9,0.9-1.3,1.4C22.8,25.6,22.4,25.8,22,25.8z"/>
	<path class="st0" d="M40,65.4C26,65.4,14.6,54,14.6,40c0-3.8,0.8-7.4,2.4-10.8c0.4-0.8,1.2-1.1,2-0.7c0.8,0.4,1.1,1.2,0.7,2
		c-1.4,3-2.1,6.2-2.1,9.5c0,12.3,10,22.4,22.4,22.4s22.4-10,22.4-22.4S52.3,17.6,40,17.6c-3.9,0-7.8,1-11.2,3
		c-0.7,0.4-1.6,0.2-2-0.5c-0.4-0.7-0.2-1.6,0.5-2c3.8-2.2,8.2-3.4,12.7-3.4C54,14.6,65.4,26,65.4,40S54,65.4,40,65.4z"/>
	<g>
		<path class="st0" d="M34.9,54.1h-8.1c-0.8,0-1.5-0.7-1.5-1.5V35.2c0-0.8,0.7-1.5,1.5-1.5h8.1c0.8,0,1.5,0.7,1.5,1.5v3.7
			c0,0.8-0.7,1.5-1.5,1.5s-1.5-0.7-1.5-1.5v-2.2h-5.1v14.4h5.1v-6.2c0-0.8,0.7-1.5,1.5-1.5s1.5,0.7,1.5,1.5v7.7
			C36.4,53.4,35.7,54.1,34.9,54.1z"/>
		<path class="st0" d="M34.7,37.7c-0.8,0-1.4-0.6-1.5-1.3c-0.1-0.8,0.5-1.6,1.3-1.6c0.2,0,3.5-0.5,4.9-5.1c0.9-2.8,2.4-5.6,6.6-4.7
			c1.4,0.3,2.5,1.3,3,2.8c0.9,2.6-0.1,6.1-2.6,9.3c-0.5,0.7-1.5,0.8-2.1,0.2c-0.6-0.5-0.8-1.5-0.2-2.1c2.1-2.6,2.6-5.1,2.1-6.4
			c-0.3-0.7-0.7-0.8-0.8-0.8c-1.4-0.3-2.1-0.3-3.1,2.6c-2.1,6.6-7.2,7.2-7.4,7.2C34.8,37.7,34.7,37.7,34.7,37.7z"/>
		<path class="st0" d="M43.6,54.9c-2.8,0-5.9-0.4-9.6-2.4c-0.7-0.4-1-1.3-0.6-2c0.4-0.7,1.3-1,2-0.6c4.3,2.3,7.6,2.1,10.9,1.9
			c0.8,0,1.7-0.1,2.5-0.1c3.3,0,3.7-2.3,3.7-3.2v-7.9c0-1.8-0.4-2.2-2-2.2h-6.8c-0.8,0-1.5-0.7-1.5-1.5s0.7-1.5,1.5-1.5h6.8
			c3.3,0,5,1.7,5,5.2v7.9c0,3.1-2.1,6.2-6.7,6.2c-0.8,0-1.5,0-2.3,0.1C45.6,54.9,44.6,54.9,43.6,54.9z"/>
	</g>
</g>
</svg>
