<?xml version="1.0" encoding="utf-8"?>
<!-- Generator: Adobe Illustrator 23.0.4, SVG Export Plug-In . SVG Version: 6.00 Build 0)  -->
<svg version="1.1" id="レイヤー_1" xmlns="http://www.w3.org/2000/svg" xmlns:xlink="http://www.w3.org/1999/xlink" x="0px"
	 y="0px" viewBox="0 0 80 80" style="enable-background:new 0 0 80 80;" xml:space="preserve">
<style type="text/css">
	.st0{fill:#FFFFFF;}
</style>
<g>
	<path class="st0" d="M53.4,75.5H26.2c-4.1,0-7.5-3.4-7.5-7.5v-3.1c0-0.8,0.7-1.5,1.5-1.5h37.7V13.1c0-2.5-2-4.5-4.5-4.5H26.2
		c-2.5,0-4.5,2-4.5,4.5v44.6c0,0.8-0.7,1.5-1.5,1.5s-1.5-0.7-1.5-1.5V13.1c0-4.1,3.4-7.5,7.5-7.5h27.2c4.1,0,7.5,3.4,7.5,7.5V68
		C60.9,72.1,57.5,75.5,53.4,75.5z M21.7,66.4V68c0,2.5,2,4.5,4.5,4.5h27.2c2.5,0,4.5-2,4.5-4.5v-1.6H21.7z"/>
	<path class="st0" d="M42.9,71.2h-5.9c-0.8,0-1.5-0.7-1.5-1.5s0.7-1.5,1.5-1.5h5.9c0.8,0,1.5,0.7,1.5,1.5S43.7,71.2,42.9,71.2z"/>
	<path class="st0" d="M52.7,17.9H20.2c-0.8,0-1.5-0.7-1.5-1.5s0.7-1.5,1.5-1.5h32.5c0.8,0,1.5,0.7,1.5,1.5S53.5,17.9,52.7,17.9z"/>
	<g>
		<g>
			<path class="st0" d="M46.1,34.3c-1.8-1.8-4.2-2.7-6.5-2.7c-2.4,0-4.7,0.9-6.5,2.7c-1.7,1.7-2.7,4-2.7,6.5c0,2.5,1,4.8,2.7,6.5
				c3.6,3.6,9.4,3.6,13,0C49.7,43.7,49.7,37.8,46.1,34.3z M39.6,48.5c-2.1,0-4-0.8-5.5-2.3l0,0c-1.5-1.5-2.3-3.4-2.3-5.5
				c0-2.1,0.8-4,2.3-5.5c3-3,7.9-3,10.9,0c3,3,3,7.9,0,10.9C43.6,47.7,41.7,48.5,39.6,48.5z"/>
			<path class="st0" d="M45,41.4c0.6,0.6,1,1.5,1,2.4c0.9-1.9,0.9-4.2,0-6.1c0,0.9-0.4,1.7-1,2.4c-0.3,0.3-0.6,0.5-0.9,0.7
				C44.4,40.9,44.8,41.1,45,41.4z"/>
			<path class="st0" d="M36.5,46.5c1.5,0,2.7-1.2,2.7-2.7v-6.1c0-0.9,0.4-1.8,1-2.4c0.6-0.6,1.5-1,2.4-1c-2.7-1.3-5.9-0.7-8.1,1.4
				c-0.3,0.3-0.5,0.6-0.8,0.9v1.1c0,0.7,0.3,1.4,0.8,1.9c0.5,0.5,1.2,0.8,1.9,0.8h0.7l0-1.4h-0.7c-0.4,0-0.7-0.1-0.9-0.4
				c-0.3-0.3-0.4-0.6-0.4-0.9l0-0.6l0,0c0.1-0.1,0.2-0.2,0.3-0.3c0.8-0.8,1.7-1.3,2.8-1.5l0.3-0.1l-0.1,0.2
				c-0.4,0.7-0.6,1.5-0.6,2.4l0,6.1c0,0.7-0.6,1.3-1.3,1.3c0,0,0,0,0,0c-0.4,0-0.7-0.1-0.9-0.4c-0.3-0.3-0.4-0.6-0.4-0.9
				c0-0.7,0.6-1.3,1.3-1.3l0.7,0v-1.4l-0.7,0c-1.5,0-2.7,1.2-2.7,2.7C33.8,45.3,35,46.5,36.5,46.5z"/>
			<path class="st0" d="M35.1,40.8c-0.3-0.2-0.7-0.4-0.9-0.7c-0.6-0.6-1-1.5-1-2.4c-0.4,0.9-0.7,2-0.7,3c0,1.1,0.2,2.1,0.7,3l0,0
				C33.2,42.5,33.9,41.3,35.1,40.8z"/>
			<path class="st0" d="M44.6,45.8c0.3-0.3,0.5-0.6,0.8-0.9v-1.1c0-0.7-0.3-1.4-0.8-1.9c-0.5-0.5-1.2-0.8-1.9-0.8l-0.7,0l0,1.4h0.7
				c0.4,0,0.7,0.1,0.9,0.4c0.3,0.3,0.4,0.6,0.4,0.9v0.6l0,0c-0.1,0.1-0.2,0.2-0.3,0.3c-0.8,0.8-1.7,1.3-2.8,1.5l-0.3,0.1l0.1-0.2
				c0.4-0.7,0.6-1.5,0.6-2.4l0-6.1c0-0.4,0.1-0.7,0.4-0.9c0.3-0.3,0.6-0.4,0.9-0.4c0.4,0,0.7,0.1,0.9,0.4c0.3,0.3,0.4,0.6,0.4,0.9
				l0,0.1c0,0.3-0.2,0.6-0.4,0.8C43.3,38.9,43,39,42.7,39c0,0,0,0,0,0l-0.7,0v1.4h0.7c0.7,0,1.4-0.3,1.9-0.8
				c0.5-0.5,0.8-1.2,0.8-1.9c0-0.7-0.3-1.4-0.8-1.9c-0.5-0.5-1.2-0.8-1.9-0.8h-0.1c-0.7,0-1.4,0.3-1.9,0.8c-0.5,0.5-0.8,1.2-0.8,1.9
				l0,6.1c0,1.9-1.5,3.4-3.4,3.4C39.3,48.5,42.5,47.9,44.6,45.8z"/>
			<path class="st0" d="M39.9,27.9l8.3,7L48,33.7l-6.9-5.8h0v0c-0.8-0.7-1-0.8-1.5-0.8c-0.4,0-0.7,0.2-1.5,0.8l-0.3,0.2H39l0.6-0.5
				L39.9,27.9z"/>
			<path class="st0" d="M51.6,35l-0.2-0.1l0.2,1.2l0.8,0.6c0.9,0.7,2,1,3.5,0.9C55,37.3,53.8,36.7,51.6,35z"/>
			<path class="st0" d="M28.7,28.3c0.2,0.8,0.3,2.2-0.1,5l0,0.2l0.9-0.8l0.2-1C29.8,30.7,29.5,29.5,28.7,28.3z"/>
			<path class="st0" d="M48.4,30.3C48.1,30,47.8,30,46.7,30h-0.3l0.9,0.7H48l0.1,0.4L50,41.8l0.6-1L49,31.9
				C48.8,30.9,48.7,30.6,48.4,30.3z"/>
			<path class="st0" d="M50.6,33.3c-0.4-2.9-0.3-4.2,0-5.1c-0.8,1.1-1.2,2.2-1,3.6l1.5,8.3l0.6-1l-0.1-0.7L50.6,33.3z"/>
			<path class="st0" d="M42.4,30.7L41.6,30l-9.1,0c-1,0-1.3,0-1.7,0.3c-0.3,0.3-0.4,0.6-0.6,1.6l0,0.1l0,0.3l0.9-0.7l0.1-0.8H42.4z"
				/>
			<path class="st0" d="M54.1,48.8c-0.5-0.7-1-1.9-1.7-4.7l0-0.2l-0.6,1l0.2,1C52.2,46.9,52.9,47.9,54.1,48.8z"/>
			<path class="st0" d="M50,48.5c1-0.4,1.2-0.5,1.5-0.9c0.2-0.4,0.2-0.7,0-1.7l-0.1-0.3l-0.6,1l0.1,0.8l-0.4,0.2l-10.2,3.7l1.1,0.4
				L50,48.5z"/>
			<path class="st0" d="M35.8,52.8l-0.7,0.3l-0.3-0.6L31,46l0,0l-1.6-2.7l-0.2,1.1l4.5,7.8h0l0,0c0.5,0.9,0.7,1.1,1.1,1.3
				c0.4,0.2,0.7,0.1,1.7-0.3l0,0l0.3-0.1L35.8,52.8z"/>
			<path class="st0" d="M26.1,38.4L26.1,38.4c-0.1,0.5,0.1,0.8,0.6,1.6l0.2,0.3l0.2-1.1l-0.4-0.7l0,0l8.6-7.2h-1.2l-6.9,5.8l0-0.1
				l0,0l0,0.1C26.4,37.7,26.2,37.9,26.1,38.4z"/>
			<path class="st0" d="M45.4,52.3l0.2-0.3l-1.1,0.4l-0.4,0.7l-0.4-0.2l-10.2-3.7l0.6,1l8.5,3.1c1,0.4,1.3,0.4,1.7,0.3
				C44.7,53.5,44.9,53.2,45.4,52.3z"/>
			<path class="st0" d="M36.8,53.9c-1.1,0.4-1.9,1.2-2.6,2.6c0.6-0.6,1.7-1.4,4.4-2.5l0.2-0.1l-1.1-0.4L36.8,53.9z"/>
			<path class="st0" d="M25.4,49.3c0.1,0,0.2,0,0.3,0c0.9,0,2.2,0.2,4.6,0.9l0.2,0.1l-0.6-1L29,49C27.9,48.6,26.8,48.7,25.4,49.3z"
				/>
			<path class="st0" d="M31.8,51.5c1.3,2.6,1.7,3.9,1.8,4.8c0.4-1.3,0.4-2.4-0.3-3.7l-4.2-7.3l-0.2,1.2L31.8,51.5z"/>
			<path class="st0" d="M26.2,40.3c-0.6-1-1.5-1.6-3-2.1c0.7,0.5,1.6,1.5,3.2,3.9l0.1,0.2l0.2-1.2L26.2,40.3z"/>
			<path class="st0" d="M34.5,51l0.6,1l5.5,2c2.7,1.1,3.8,1.9,4.4,2.5c-0.6-1.2-1.3-2.1-2.6-2.6L34.5,51z"/>
			<path class="st0" d="M26.7,44c-0.6,2.8-1.2,4.1-1.7,4.8c1.1-0.8,1.9-1.6,2.1-3l1.5-8.3l-0.9,0.8l-0.1,0.4L26.7,44z"/>
			<path class="st0" d="M56,38.2c-1.3,0.3-2.3,0.9-3,2.1l-4.2,7.3l1.1-0.4l2.9-5.1C54.4,39.7,55.3,38.7,56,38.2z"/>
			<path class="st0" d="M45.6,56.2c0.1-0.9,0.5-2.2,1.8-4.7l0.1-0.2l-1.1,0.4l-0.5,0.9C45.3,53.6,45.2,54.7,45.6,56.2z"/>
			<path class="st0" d="M53.8,49.4c-1.2-0.6-2.3-0.8-3.6-0.4v0h-0.1l-7.9,2.9l1.1,0.4l5.5-2C51.6,49.4,53,49.3,53.8,49.4z"/>
			<path class="st0" d="M28.2,47.3l0.1-0.7l1.8-10.4L29.3,37l-1.6,8.9c-0.2,1-0.2,1.3,0,1.7c0.2,0.4,0.5,0.5,1.5,0.9l0,0l0.3,0.1
				l-0.6-1L28.2,47.3z"/>
			<path class="st0" d="M44.8,28.6l0.9,0.8l1,0c1.1,0,2.2-0.5,3.3-1.6c-0.8,0.3-2.1,0.7-5,0.8L44.8,28.6z"/>
			<path class="st0" d="M23.3,37.6c1.3,0.1,2.5,0,3.6-0.9l6.4-5.4h-1.2L27.7,35C25.3,36.7,24.1,37.3,23.3,37.6z"/>
			<path class="st0" d="M53.1,38.4c-0.1-0.4-0.3-0.7-1.1-1.3l-0.3-0.2l0.2,1.1l0.6,0.5l-0.3,0.6l-5.3,9.2l1.1-0.4l4.6-7.9
				C53,39.1,53.2,38.8,53.1,38.4z"/>
			<path class="st0" d="M41.5,27.5l6.4,5.4l-0.2-1.2L43.2,28c-2.1-2-2.9-3.1-3.3-3.9C40,25.5,40.4,26.6,41.5,27.5z"/>
			<path class="st0" d="M29.2,27.8c0.9,1,1.9,1.6,3.3,1.6c0,0,0,0,0,0l8.4,0L40,28.6h-5.8C31.3,28.5,29.9,28.2,29.2,27.8z"/>
			<path class="st0" d="M39.3,24.2C38.9,24.9,38.1,26,36,28l-0.2,0.1H37l0.8-0.6C38.6,26.8,39.1,25.7,39.3,24.2z"/>
		</g>
	</g>
</g>
</svg>
