<?xml version="1.0" encoding="utf-8"?>
<!-- Generator: Adobe Illustrator 23.0.1, SVG Export Plug-In . SVG Version: 6.00 Build 0)  -->
<svg version="1.1" id="レイヤー_1" xmlns="http://www.w3.org/2000/svg" xmlns:xlink="http://www.w3.org/1999/xlink" x="0px"
	 y="0px" viewBox="0 0 80 80" style="enable-background:new 0 0 80 80;" xml:space="preserve">
<style type="text/css">
	.st0{fill:#FFFFFF;}
</style>
<g>
	<path class="st0" d="M67.7,12.1C60.3,4.7,50.4,0.6,39.9,0.6S19.6,4.7,12.1,12.1C4.7,19.5,0.6,29.4,0.6,39.8
		c0,9.8,3.6,19.1,10.2,26.3c1.4,1.1,3,0,2.1-1.5c-6.3-6.8-9.7-15.6-9.7-24.9c0-9.8,3.8-19,10.8-26c6.9-6.9,16.2-10.8,26-10.8
		s19,3.8,26,10.8c6.9,6.9,10.8,16.2,10.8,26c0,9.8-3.8,19-10.8,26c-6.9,6.9-16.2,10.8-26,10.8c-8.5,0-16.5-2.9-23-8.1
		c-1.4-1-2.8,0.7-1.9,1.7c7,5.8,15.7,8.9,24.9,8.9c10.5,0,20.4-4.1,27.8-11.5c7.4-7.4,11.5-17.3,11.5-27.8
		C79.2,29.4,75.1,19.5,67.7,12.1z"/>
	<path class="st0" d="M60,59.9c11.1-11.1,11.1-29.1,0-40.2c-1.5-1.2-3.3,0.2-1.8,1.8c10.1,10.1,10.1,26.5,0,36.6
		c-10.1,10.1-26.5,10.1-36.6,0s-10.1-26.5,0-36.6c8.7-8.7,22.2-9.9,32.2-3.5c1.7,1,3.2-1,1.2-2.3c-11-6.9-25.6-5.5-35.1,4
		c-11.1,11.1-11.1,29.1,0,40.2C30.9,71,49,71,60,59.9z"/>
	<path class="st0" d="M39.9,18.4c-11.8,0-21.4,9.6-21.4,21.4c0,11.8,9.6,21.4,21.4,21.4c11.8,0,21.4-9.6,21.4-21.4
		C61.3,28,51.7,18.4,39.9,18.4z M42.4,40c0,1.4-1.1,2.6-2.6,2.6s-2.6-1.1-2.6-2.6c0-1.4,1.1-2.6,2.6-2.6S42.4,38.6,42.4,40z
		 M39.9,21.1c1,0,2,0.1,2.9,0.2v13.5L31.2,23.2C33.8,21.9,36.8,21.1,39.9,21.1z M28.9,24.7l9.5,9.5H22C23.3,30.4,25.7,27,28.9,24.7z
		 M34.3,57.7c-3.9-1.2-7.2-3.7-9.5-6.9l9.5-9.5V57.7z M23.3,48.5c-1.4-2.6-2.1-5.5-2.1-8.7c0-1,0.1-2,0.2-2.9h13.5L23.3,48.5z
		 M39.9,58.6c-1,0-2-0.1-2.9-0.2V44.9l11.6,11.6C46,57.8,43,58.6,39.9,58.6z M50.9,55l-9.5-9.5h16.4C56.6,49.3,54.1,52.7,50.9,55z
		 M58.6,39.8c0,1-0.1,2-0.2,2.9H44.9l11.6-11.6C57.9,33.8,58.6,36.7,58.6,39.8z M45.5,38.4V22c3.9,1.2,7.2,3.7,9.5,6.9L45.5,38.4z"
		/>
	<path class="st0" d="M28.9,10.4c0.3-0.3,0.5-0.9,0.3-1.4c-0.3-0.7-1-1-1.6-0.7c-4.4,1.7-8.2,4.3-11.6,7.6
		c-3.3,3.3-5.9,7.2-7.6,11.6c-0.3,0.7,0.1,1.4,0.7,1.6c0.7,0.3,1.4-0.1,1.6-0.7c1.6-4,3.9-7.6,7-10.7c3.1-3.1,6.7-5.4,10.7-7
		C28.7,10.6,28.8,10.5,28.9,10.4z"/>
	<path class="st0" d="M64,61.8c0.5,0.4,1.3,0.4,1.7-0.1c0,0,0-0.1,0.1-0.1c2.4-2.8,4.3-6,5.7-9.5c0.3-0.7-0.1-1.4-0.7-1.6
		c-0.7-0.3-1.4,0.1-1.6,0.7c-1.3,3.2-3,6.1-5.2,8.8C63.4,60.6,63.5,61.4,64,61.8z"/>
	<path class="st0" d="M60.2,63.7c-2.6,2.2-5.6,4-8.8,5.2c-0.7,0.3-1,1-0.7,1.6c0.3,0.7,1,1,1.6,0.7c3.5-1.4,6.7-3.3,9.5-5.7
		c0,0,0.1,0,0.1-0.1c0.5-0.5,0.5-1.2,0.1-1.7C61.5,63.3,60.7,63.3,60.2,63.7z"/>
</g>
</svg>
