<?xml version="1.0" encoding="utf-8"?>
<!-- Generator: Adobe Illustrator 23.0.2, SVG Export Plug-In . SVG Version: 6.00 Build 0)  -->
<svg version="1.1" id="レイヤー_1" xmlns="http://www.w3.org/2000/svg" xmlns:xlink="http://www.w3.org/1999/xlink" x="0px"
	 y="0px" viewBox="0 0 80 80" style="enable-background:new 0 0 80 80;" xml:space="preserve">
<style type="text/css">
	.st0{fill:#FFFFFF;}
</style>
<g>
	<g>
		<path class="st0" d="M76.4,33.4c-1-5.6-3.3-10.9-6.7-15.5c-0.5-0.7-1.4-0.8-2.1-0.3s-0.8,1.4-0.3,2.1c3.1,4.2,5.2,9.1,6.2,14.2
			c1,5.4,0.6,10.7-1,16C67,67.9,48,78,30.1,72.5C12.1,67,2,48,7.5,30.1S32,2,49.9,7.5c0.8,0.2,1.6-0.2,1.9-1s-0.2-1.6-1-1.9
			c-19.5-6-40.2,5-46.2,24.6s5,40.2,24.6,46.2c19.5,6,40.2-5,46.2-24.6C77.1,45.2,77.5,39.2,76.4,33.4z"/>
	</g>
	<path class="st0" d="M30.5,58.4c-0.8,0-1.5-0.7-1.5-1.5V23.5c0-0.5,0.3-1,0.8-1.3c0.5-0.3,1-0.3,1.5,0l27.1,16.2
		c0.4,0.3,0.7,0.7,0.7,1.3c0,0.5-0.2,1-0.7,1.3L39,53.6c-0.7,0.5-1.6,0.3-2.1-0.4c-0.5-0.7-0.3-1.6,0.4-2.1l17.4-11.4L32,26.1v30.7
		C32,57.7,31.3,58.4,30.5,58.4z"/>
</g>
</svg>
