<?xml version="1.0" encoding="utf-8"?>
<!-- Generator: Adobe Illustrator 23.0.4, SVG Export Plug-In . SVG Version: 6.00 Build 0)  -->
<svg version="1.1" id="レイヤー_1" xmlns="http://www.w3.org/2000/svg" xmlns:xlink="http://www.w3.org/1999/xlink" x="0px"
	 y="0px" viewBox="0 0 80 80" style="enable-background:new 0 0 80 80;" xml:space="preserve">
<style type="text/css">
	.st0{fill:#FFFFFF;}
</style>
<g>
	<g>
		<path class="st0" d="M39.1,37.7c-6.4,0-11.6-5.2-11.6-11.6c0-6.4,5.2-11.6,11.6-11.6s11.6,5.2,11.6,11.6
			C50.6,32.5,45.4,37.7,39.1,37.7z M39.1,17.9c-4.5,0-8.2,3.7-8.2,8.2c0,4.5,3.7,8.2,8.2,8.2c4.5,0,8.2-3.7,8.2-8.2
			C47.3,21.6,43.6,17.9,39.1,17.9z"/>
		<path class="st0" d="M39.1,57.9c-0.4,0-0.9-0.2-1.2-0.5c-0.8-0.8-19.8-20-19.8-31.2c0-11.6,9.4-21,21-21s21,9.4,21,21
			c0,2.6-1,5.7-2.9,9.3c-0.4,0.8-1.4,1.1-2.3,0.7c-0.8-0.4-1.1-1.4-0.7-2.3c1.6-3.1,2.5-5.8,2.5-7.8c0-9.7-7.9-17.6-17.6-17.6
			c-9.7,0-17.6,7.9-17.6,17.6c0,7.6,11.7,21.4,17.5,27.6c2.3-2.5,7.4-8.2,10.8-12.5c0.6-0.7,1.6-0.8,2.4-0.3
			c0.7,0.6,0.8,1.6,0.3,2.4c-4.6,5.7-12,13.9-12.1,14C40,57.6,39.6,57.8,39.1,57.9C39.1,57.9,39.1,57.9,39.1,57.9z"/>
	</g>
	<path class="st0" d="M40.2,65.7c-10.1,0-20.9-2.3-20.9-7.4c0-2.6,2.9-4.7,8.4-6.1c0.9-0.2,1.8,0.3,2,1.2c0.2,0.9-0.3,1.8-1.2,2
		c-4.8,1.2-5.8,2.6-5.8,2.8c0,1.2,6.2,4,17.6,4s17.6-2.9,17.6-4c0-0.9-4.3-3.4-13.9-3.9c-0.9-0.1-1.6-0.8-1.6-1.8
		c0.1-0.9,0.9-1.7,1.8-1.6c8.2,0.5,17,2.7,17,7.3C61.1,63.4,50.3,65.7,40.2,65.7z"/>
	<path class="st0" d="M39.8,75.9c-19.9,0-35.5-6.7-35.5-15.4c0-7.3,10.8-13.3,26.9-14.9c0.9-0.1,1.7,0.6,1.8,1.5
		c0.1,0.9-0.6,1.7-1.5,1.8C17.9,50.3,7.6,55.3,7.6,60.5c0,7.1,17,12,32.2,12s32.2-4.9,32.2-12c0-4.1-6.4-8.2-16.3-10.4
		c-0.9-0.2-1.5-1.1-1.3-2c0.2-0.9,1.1-1.5,2-1.3c11.9,2.6,19,7.7,19,13.7C75.3,69.1,59.7,75.9,39.8,75.9z"/>
</g>
</svg>
