<?xml version="1.0" encoding="utf-8"?>
<!-- Generator: Adobe Illustrator 22.1.0, SVG Export Plug-In . SVG Version: 6.00 Build 0)  -->
<svg version="1.1" id="Capa_1" xmlns="http://www.w3.org/2000/svg" xmlns:xlink="http://www.w3.org/1999/xlink" x="0px" y="0px"
	 viewBox="0 0 450 412.6" style="enable-background:new 0 0 450 412.6;" xml:space="preserve">
<style type="text/css">
	.st0{fill:#4856C3;}
</style>
<g>
	<g>
		<path class="st0" d="M448.1,389.6L238.6,9c-2.7-5-8-8.1-13.6-8.1c-5.7,0-10.9,3.1-13.6,8.1L1.9,389.6c-2.7,4.8-2.6,10.7,0.2,15.4
			c2.8,4.7,7.9,7.6,13.4,7.6h418.8c5.5,0,10.6-2.9,13.4-7.6C450.6,400.3,450.7,394.4,448.1,389.6z M41.9,381.5L225,48.8l183.1,332.7
			H41.9z"/>
		<path class="st0" d="M205.5,160.1v112.6c0,10.8,8.7,19.5,19.5,19.5s19.5-8.7,19.5-19.5V160.1c0-10.8-8.7-19.5-19.5-19.5
			S205.5,149.3,205.5,160.1z"/>
		<path class="st0" d="M225,312.4c-11.3,0-20.6,9.2-20.6,20.6c0,11.3,9.2,20.6,20.6,20.6c11.3,0,20.6-9.2,20.6-20.6
			C245.6,321.7,236.3,312.4,225,312.4z"/>
	</g>
</g>
</svg>
